G04 #@! TF.GenerationSoftware,KiCad,Pcbnew,8.0.6*
G04 #@! TF.CreationDate,2025-01-06T10:49:23-06:00*
G04 #@! TF.ProjectId,BurbSec_GenCoin,42757262-5365-4635-9f47-656e436f696e,0.1*
G04 #@! TF.SameCoordinates,Original*
G04 #@! TF.FileFunction,Copper,L1,Top*
G04 #@! TF.FilePolarity,Positive*
%FSLAX46Y46*%
G04 Gerber Fmt 4.6, Leading zero omitted, Abs format (unit mm)*
G04 Created by KiCad (PCBNEW 8.0.6) date 2025-01-06 10:49:23*
%MOMM*%
%LPD*%
G01*
G04 APERTURE LIST*
G04 Aperture macros list*
%AMRoundRect*
0 Rectangle with rounded corners*
0 $1 Rounding radius*
0 $2 $3 $4 $5 $6 $7 $8 $9 X,Y pos of 4 corners*
0 Add a 4 corners polygon primitive as box body*
4,1,4,$2,$3,$4,$5,$6,$7,$8,$9,$2,$3,0*
0 Add four circle primitives for the rounded corners*
1,1,$1+$1,$2,$3*
1,1,$1+$1,$4,$5*
1,1,$1+$1,$6,$7*
1,1,$1+$1,$8,$9*
0 Add four rect primitives between the rounded corners*
20,1,$1+$1,$2,$3,$4,$5,0*
20,1,$1+$1,$4,$5,$6,$7,0*
20,1,$1+$1,$6,$7,$8,$9,0*
20,1,$1+$1,$8,$9,$2,$3,0*%
G04 Aperture macros list end*
G04 #@! TA.AperFunction,SMDPad,CuDef*
%ADD10RoundRect,0.218750X-0.218750X-0.256250X0.218750X-0.256250X0.218750X0.256250X-0.218750X0.256250X0*%
G04 #@! TD*
G04 #@! TA.AperFunction,SMDPad,CuDef*
%ADD11RoundRect,0.218750X0.218750X0.256250X-0.218750X0.256250X-0.218750X-0.256250X0.218750X-0.256250X0*%
G04 #@! TD*
G04 #@! TA.AperFunction,SMDPad,CuDef*
%ADD12R,2.000000X0.600000*%
G04 #@! TD*
G04 #@! TA.AperFunction,SMDPad,CuDef*
%ADD13RoundRect,0.250000X-0.250000X-0.475000X0.250000X-0.475000X0.250000X0.475000X-0.250000X0.475000X0*%
G04 #@! TD*
G04 #@! TA.AperFunction,SMDPad,CuDef*
%ADD14R,0.533400X1.460500*%
G04 #@! TD*
G04 #@! TA.AperFunction,SMDPad,CuDef*
%ADD15RoundRect,0.200000X0.200000X0.275000X-0.200000X0.275000X-0.200000X-0.275000X0.200000X-0.275000X0*%
G04 #@! TD*
G04 #@! TA.AperFunction,SMDPad,CuDef*
%ADD16RoundRect,0.225000X-0.225000X-0.250000X0.225000X-0.250000X0.225000X0.250000X-0.225000X0.250000X0*%
G04 #@! TD*
G04 #@! TA.AperFunction,SMDPad,CuDef*
%ADD17RoundRect,0.200000X-0.200000X-0.275000X0.200000X-0.275000X0.200000X0.275000X-0.200000X0.275000X0*%
G04 #@! TD*
G04 #@! TA.AperFunction,ViaPad*
%ADD18C,0.600000*%
G04 #@! TD*
G04 #@! TA.AperFunction,Conductor*
%ADD19C,0.200000*%
G04 #@! TD*
G04 APERTURE END LIST*
D10*
X133787500Y-113000000D03*
X135362500Y-113000000D03*
D11*
X156000000Y-98000000D03*
X154425000Y-98000000D03*
D12*
X137000000Y-89540000D03*
X137000000Y-88270000D03*
X137000000Y-87000000D03*
X137000000Y-85730000D03*
X132100000Y-85730000D03*
X132100000Y-87000000D03*
X132100000Y-88270000D03*
X132100000Y-89540000D03*
D13*
X126100000Y-85730000D03*
X128000000Y-85730000D03*
D10*
X134000000Y-67500000D03*
X135575000Y-67500000D03*
D11*
X156000000Y-82000000D03*
X154425000Y-82000000D03*
D10*
X112925000Y-82500000D03*
X114500000Y-82500000D03*
D11*
X142750000Y-87750000D03*
X141175000Y-87750000D03*
D14*
X130400000Y-99448300D03*
X131670000Y-99448300D03*
X132940000Y-99448300D03*
X134210000Y-99448300D03*
X135480000Y-99448300D03*
X136750000Y-99448300D03*
X138020000Y-99448300D03*
X139290000Y-99448300D03*
X139290000Y-94000000D03*
X138020000Y-94000000D03*
X136750000Y-94000000D03*
X135480000Y-94000000D03*
X134210000Y-94000000D03*
X132940000Y-94000000D03*
X131670000Y-94000000D03*
X130400000Y-94000000D03*
D15*
X128000000Y-87730000D03*
X126350000Y-87730000D03*
D10*
X112925000Y-98000000D03*
X114500000Y-98000000D03*
D15*
X128000000Y-83730000D03*
X126350000Y-83730000D03*
X142900000Y-89500000D03*
X141250000Y-89500000D03*
D11*
X147500000Y-108000000D03*
X145925000Y-108000000D03*
D16*
X141200000Y-86000000D03*
X142750000Y-86000000D03*
D10*
X120425000Y-107500000D03*
X122000000Y-107500000D03*
X121425000Y-72000000D03*
X123000000Y-72000000D03*
D17*
X126350000Y-89500000D03*
X128000000Y-89500000D03*
D11*
X149000000Y-72500000D03*
X147425000Y-72500000D03*
D16*
X131950000Y-83730000D03*
X133500000Y-83730000D03*
D18*
X130040000Y-89540000D03*
X130400000Y-92000000D03*
X125000000Y-89500000D03*
X134000000Y-89000000D03*
X134000000Y-86000000D03*
X142500000Y-81000000D03*
X139500000Y-89540000D03*
X135000000Y-83730000D03*
X130500000Y-81000000D03*
X135500000Y-86500000D03*
X132940000Y-92060000D03*
X112925000Y-96500000D03*
X134000000Y-69000000D03*
X149000000Y-74000000D03*
X124770000Y-83730000D03*
X121425000Y-73425000D03*
X133787500Y-111500000D03*
X147500000Y-106750000D03*
X156000000Y-83500000D03*
X120425000Y-106000000D03*
X112925000Y-83925000D03*
X156000000Y-96500000D03*
X136750000Y-92000000D03*
X135575000Y-69100000D03*
X139290000Y-92000000D03*
X147425000Y-73925000D03*
X136750000Y-98000000D03*
X154425000Y-83425000D03*
X154425000Y-96575000D03*
X135480000Y-101480000D03*
X145925000Y-106575000D03*
X130400000Y-101500000D03*
X142000000Y-103000000D03*
X135362500Y-111500000D03*
X129000000Y-101500000D03*
X122000000Y-106000000D03*
X128600000Y-97400000D03*
X114500000Y-96500000D03*
X114500000Y-84000000D03*
X131670000Y-98000000D03*
X132940000Y-98000000D03*
X123000000Y-73500000D03*
D19*
X141200000Y-82300000D02*
X142500000Y-81000000D01*
X137000000Y-85730000D02*
X134270000Y-85730000D01*
X141200000Y-86000000D02*
X141200000Y-82300000D01*
X134270000Y-85730000D02*
X134000000Y-86000000D01*
X130400000Y-94000000D02*
X130400000Y-92000000D01*
X133460000Y-89540000D02*
X134000000Y-89000000D01*
X132100000Y-89540000D02*
X133460000Y-89540000D01*
X126350000Y-89500000D02*
X125000000Y-89500000D01*
X132100000Y-89540000D02*
X130040000Y-89540000D01*
X140930000Y-85730000D02*
X141200000Y-86000000D01*
X137000000Y-85730000D02*
X140930000Y-85730000D01*
X134210000Y-91790000D02*
X136460000Y-89540000D01*
X142012500Y-88487500D02*
X142012500Y-86737500D01*
X129500000Y-83960000D02*
X129270000Y-83730000D01*
X129500000Y-83500000D02*
X129500000Y-82000000D01*
X141250000Y-89500000D02*
X141250000Y-89250000D01*
X129500000Y-85500000D02*
X129500000Y-83960000D01*
X134210000Y-94210000D02*
X134210000Y-94000000D01*
X131670000Y-94463550D02*
X132706450Y-95500000D01*
X133500000Y-83730000D02*
X135000000Y-83730000D01*
X129270000Y-85730000D02*
X129500000Y-85500000D01*
X134210000Y-94000000D02*
X134210000Y-91790000D01*
X131670000Y-94000000D02*
X131670000Y-94463550D01*
X134210000Y-94463550D02*
X134210000Y-94000000D01*
X136460000Y-89540000D02*
X137000000Y-89540000D01*
X129500000Y-82000000D02*
X130500000Y-81000000D01*
X129270000Y-83730000D02*
X129500000Y-83500000D01*
X141210000Y-89540000D02*
X141250000Y-89500000D01*
X139290000Y-99290000D02*
X134210000Y-94210000D01*
X137000000Y-89540000D02*
X139500000Y-89540000D01*
X132706450Y-95500000D02*
X133173550Y-95500000D01*
X128000000Y-83730000D02*
X129270000Y-83730000D01*
X133173550Y-95500000D02*
X134210000Y-94463550D01*
X142012500Y-86737500D02*
X142750000Y-86000000D01*
X141250000Y-89250000D02*
X142012500Y-88487500D01*
X128000000Y-85730000D02*
X129270000Y-85730000D01*
X139500000Y-89540000D02*
X141210000Y-89540000D01*
X139290000Y-99448300D02*
X139290000Y-99290000D01*
X126350000Y-87730000D02*
X126350000Y-85980000D01*
X136300000Y-88270000D02*
X135030000Y-87000000D01*
X135030000Y-87000000D02*
X132100000Y-87000000D01*
X137000000Y-88270000D02*
X136300000Y-88270000D01*
X126350000Y-85980000D02*
X126100000Y-85730000D01*
X127125000Y-86955000D02*
X126350000Y-87730000D01*
X132055000Y-86955000D02*
X127125000Y-86955000D01*
X132100000Y-87000000D02*
X132055000Y-86955000D01*
X132100000Y-85730000D02*
X132100000Y-83880000D01*
X132100000Y-83880000D02*
X131950000Y-83730000D01*
X142750000Y-89350000D02*
X142900000Y-89500000D01*
X142750000Y-87750000D02*
X142750000Y-89350000D01*
X132940000Y-94000000D02*
X132940000Y-92060000D01*
X137000000Y-87000000D02*
X140425000Y-87000000D01*
X137000000Y-87000000D02*
X136000000Y-87000000D01*
X140425000Y-87000000D02*
X141175000Y-87750000D01*
X136000000Y-87000000D02*
X135500000Y-86500000D01*
X134000000Y-68000000D02*
X134000000Y-69000000D01*
X133787500Y-113000000D02*
X133787500Y-111500000D01*
X149000000Y-72500000D02*
X149000000Y-74000000D01*
X112925000Y-82500000D02*
X112925000Y-83925000D01*
X156000000Y-98000000D02*
X156000000Y-96500000D01*
X126350000Y-83730000D02*
X124770000Y-83730000D01*
X121425000Y-72000000D02*
X121425000Y-73425000D01*
X156000000Y-82000000D02*
X156000000Y-83500000D01*
X112925000Y-98000000D02*
X112925000Y-96500000D01*
X120425000Y-107500000D02*
X120425000Y-106000000D01*
X147500000Y-108000000D02*
X147500000Y-106750000D01*
X135575000Y-68000000D02*
X135575000Y-69100000D01*
X136750000Y-94000000D02*
X136750000Y-92000000D01*
X147425000Y-72500000D02*
X147425000Y-73925000D01*
X139290000Y-94000000D02*
X139290000Y-92000000D01*
X154425000Y-82000000D02*
X154425000Y-83425000D01*
X136750000Y-99448300D02*
X136750000Y-98000000D01*
X135480000Y-99448300D02*
X135480000Y-101480000D01*
X154425000Y-98000000D02*
X154425000Y-96575000D01*
X145925000Y-108000000D02*
X145925000Y-106575000D01*
X130400000Y-99448300D02*
X130400000Y-101500000D01*
X140000000Y-98561350D02*
X138020000Y-96581350D01*
X135362500Y-113000000D02*
X135362500Y-111500000D01*
X138020000Y-96581350D02*
X138020000Y-94000000D01*
X142000000Y-103000000D02*
X140000000Y-101000000D01*
X140000000Y-101000000D02*
X140000000Y-98561350D01*
X130000000Y-102500000D02*
X136598529Y-102500000D01*
X129000000Y-101500000D02*
X130000000Y-102500000D01*
X136598529Y-102500000D02*
X138020000Y-101078529D01*
X138020000Y-101078529D02*
X138020000Y-99448300D01*
X122000000Y-107500000D02*
X122000000Y-106000000D01*
X114500000Y-98000000D02*
X114500000Y-96500000D01*
X134210000Y-99448300D02*
X134210000Y-98421471D01*
X133188529Y-97400000D02*
X128600000Y-97400000D01*
X134210000Y-98421471D02*
X133188529Y-97400000D01*
X114500000Y-82500000D02*
X114500000Y-84000000D01*
X131670000Y-99448300D02*
X131670000Y-98000000D01*
X132940000Y-99448300D02*
X132940000Y-98000000D01*
X123000000Y-72000000D02*
X123000000Y-73500000D01*
X131560000Y-87730000D02*
X132100000Y-88270000D01*
X128000000Y-87730000D02*
X131560000Y-87730000D01*
X128000000Y-87730000D02*
X128000000Y-89500000D01*
M02*
