M48
; DRILL file {KiCad 8.0.6} date 2025-01-06T10:49:44-0600
; FORMAT={-:-/ absolute / metric / decimal}
; #@! TF.CreationDate,2025-01-06T10:49:44-06:00
; #@! TF.GenerationSoftware,Kicad,Pcbnew,8.0.6
; #@! TF.FileFunction,Plated,1,2,PTH
FMAT,2
METRIC
; #@! TA.AperFunction,Plated,PTH,ViaDrill
T1C0.300
%
G90
G05
T1
X112.925Y-83.925
X112.925Y-96.5
X114.5Y-84.0
X114.5Y-96.5
X120.425Y-106.0
X121.425Y-73.425
X122.0Y-106.0
X123.0Y-73.5
X124.77Y-83.73
X125.0Y-89.5
X128.6Y-97.4
X129.0Y-101.5
X130.04Y-89.54
X130.4Y-92.0
X130.4Y-101.5
X130.5Y-81.0
X131.67Y-98.0
X132.94Y-92.06
X132.94Y-98.0
X133.787Y-111.5
X134.0Y-69.0
X134.0Y-86.0
X134.0Y-89.0
X135.0Y-83.73
X135.362Y-111.5
X135.48Y-101.48
X135.5Y-86.5
X135.575Y-69.1
X136.75Y-92.0
X136.75Y-98.0
X139.29Y-92.0
X139.5Y-89.54
X142.0Y-103.0
X142.5Y-81.0
X145.925Y-106.575
X147.425Y-73.925
X147.5Y-106.75
X149.0Y-74.0
X154.425Y-83.425
X154.425Y-96.575
X156.0Y-83.5
X156.0Y-96.5
M30
