G04 #@! TF.GenerationSoftware,KiCad,Pcbnew,8.0.6*
G04 #@! TF.CreationDate,2025-01-06T10:49:24-06:00*
G04 #@! TF.ProjectId,BurbSec_GenCoin,42757262-5365-4635-9f47-656e436f696e,0.1*
G04 #@! TF.SameCoordinates,Original*
G04 #@! TF.FileFunction,Soldermask,Bot*
G04 #@! TF.FilePolarity,Negative*
%FSLAX46Y46*%
G04 Gerber Fmt 4.6, Leading zero omitted, Abs format (unit mm)*
G04 Created by KiCad (PCBNEW 8.0.6) date 2025-01-06 10:49:24*
%MOMM*%
%LPD*%
G01*
G04 APERTURE LIST*
G04 Aperture macros list*
%AMRoundRect*
0 Rectangle with rounded corners*
0 $1 Rounding radius*
0 $2 $3 $4 $5 $6 $7 $8 $9 X,Y pos of 4 corners*
0 Add a 4 corners polygon primitive as box body*
4,1,4,$2,$3,$4,$5,$6,$7,$8,$9,$2,$3,0*
0 Add four circle primitives for the rounded corners*
1,1,$1+$1,$2,$3*
1,1,$1+$1,$4,$5*
1,1,$1+$1,$6,$7*
1,1,$1+$1,$8,$9*
0 Add four rect primitives between the rounded corners*
20,1,$1+$1,$2,$3,$4,$5,0*
20,1,$1+$1,$4,$5,$6,$7,0*
20,1,$1+$1,$6,$7,$8,$9,0*
20,1,$1+$1,$8,$9,$2,$3,0*%
G04 Aperture macros list end*
%ADD10RoundRect,0.102000X3.035000X3.035000X-3.035000X3.035000X-3.035000X-3.035000X3.035000X-3.035000X0*%
%ADD11C,0.600000*%
G04 APERTURE END LIST*
D10*
X122340000Y-80000000D03*
X147000000Y-80000000D03*
X134670000Y-80000000D03*
D11*
X130040000Y-89540000D03*
X130400000Y-92000000D03*
X125000000Y-89500000D03*
X134000000Y-89000000D03*
X134000000Y-86000000D03*
X142500000Y-81000000D03*
X139500000Y-89540000D03*
X135000000Y-83730000D03*
X130500000Y-81000000D03*
X135500000Y-86500000D03*
X132940000Y-92060000D03*
X112925000Y-96500000D03*
X134000000Y-69000000D03*
X149000000Y-74000000D03*
X124770000Y-83730000D03*
X121425000Y-73425000D03*
X133787500Y-111500000D03*
X147500000Y-106750000D03*
X156000000Y-83500000D03*
X120425000Y-106000000D03*
X112925000Y-83925000D03*
X156000000Y-96500000D03*
X136750000Y-92000000D03*
X135575000Y-69100000D03*
X139290000Y-92000000D03*
X147425000Y-73925000D03*
X136750000Y-98000000D03*
X154425000Y-83425000D03*
X154425000Y-96575000D03*
X135480000Y-101480000D03*
X145925000Y-106575000D03*
X130400000Y-101500000D03*
X142000000Y-103000000D03*
X135362500Y-111500000D03*
X129000000Y-101500000D03*
X122000000Y-106000000D03*
X128600000Y-97400000D03*
X114500000Y-96500000D03*
X114500000Y-84000000D03*
X131670000Y-98000000D03*
X132940000Y-98000000D03*
X123000000Y-73500000D03*
M02*
