G04 #@! TF.GenerationSoftware,KiCad,Pcbnew,8.0.6*
G04 #@! TF.CreationDate,2025-01-06T10:49:24-06:00*
G04 #@! TF.ProjectId,BurbSec_GenCoin,42757262-5365-4635-9f47-656e436f696e,0.1*
G04 #@! TF.SameCoordinates,Original*
G04 #@! TF.FileFunction,Legend,Bot*
G04 #@! TF.FilePolarity,Positive*
%FSLAX46Y46*%
G04 Gerber Fmt 4.6, Leading zero omitted, Abs format (unit mm)*
G04 Created by KiCad (PCBNEW 8.0.6) date 2025-01-06 10:49:24*
%MOMM*%
%LPD*%
G01*
G04 APERTURE LIST*
G04 Aperture macros list*
%AMRoundRect*
0 Rectangle with rounded corners*
0 $1 Rounding radius*
0 $2 $3 $4 $5 $6 $7 $8 $9 X,Y pos of 4 corners*
0 Add a 4 corners polygon primitive as box body*
4,1,4,$2,$3,$4,$5,$6,$7,$8,$9,$2,$3,0*
0 Add four circle primitives for the rounded corners*
1,1,$1+$1,$2,$3*
1,1,$1+$1,$4,$5*
1,1,$1+$1,$6,$7*
1,1,$1+$1,$8,$9*
0 Add four rect primitives between the rounded corners*
20,1,$1+$1,$2,$3,$4,$5,0*
20,1,$1+$1,$4,$5,$6,$7,0*
20,1,$1+$1,$6,$7,$8,$9,0*
20,1,$1+$1,$8,$9,$2,$3,0*%
G04 Aperture macros list end*
%ADD10C,0.800000*%
%ADD11C,0.100000*%
%ADD12C,0.125000*%
%ADD13C,0.150000*%
%ADD14C,0.127000*%
%ADD15RoundRect,0.102000X3.035000X3.035000X-3.035000X3.035000X-3.035000X-3.035000X3.035000X-3.035000X0*%
%ADD16C,0.600000*%
G04 APERTURE END LIST*
D10*
X159000000Y-90000000D02*
G75*
G02*
X110000000Y-90000000I-24500000J0D01*
G01*
X110000000Y-90000000D02*
G75*
G02*
X159000000Y-90000000I24500000J0D01*
G01*
D11*
X138007144Y-107372419D02*
X137816668Y-108372419D01*
X137816668Y-108372419D02*
X137664287Y-107658133D01*
X137664287Y-107658133D02*
X137511906Y-108372419D01*
X137511906Y-108372419D02*
X137321430Y-107372419D01*
X136673810Y-108372419D02*
X136673810Y-107848609D01*
X136673810Y-107848609D02*
X136711905Y-107753371D01*
X136711905Y-107753371D02*
X136788096Y-107705752D01*
X136788096Y-107705752D02*
X136940477Y-107705752D01*
X136940477Y-107705752D02*
X137016667Y-107753371D01*
X136673810Y-108324800D02*
X136750001Y-108372419D01*
X136750001Y-108372419D02*
X136940477Y-108372419D01*
X136940477Y-108372419D02*
X137016667Y-108324800D01*
X137016667Y-108324800D02*
X137054763Y-108229561D01*
X137054763Y-108229561D02*
X137054763Y-108134323D01*
X137054763Y-108134323D02*
X137016667Y-108039085D01*
X137016667Y-108039085D02*
X136940477Y-107991466D01*
X136940477Y-107991466D02*
X136750001Y-107991466D01*
X136750001Y-107991466D02*
X136673810Y-107943847D01*
X136369048Y-107705752D02*
X136178572Y-108372419D01*
X135988095Y-107705752D02*
X136178572Y-108372419D01*
X136178572Y-108372419D02*
X136254762Y-108610514D01*
X136254762Y-108610514D02*
X136292857Y-108658133D01*
X136292857Y-108658133D02*
X136369048Y-108705752D01*
X135759524Y-107372419D02*
X135569048Y-108372419D01*
X135569048Y-108372419D02*
X135416667Y-107658133D01*
X135416667Y-107658133D02*
X135264286Y-108372419D01*
X135264286Y-108372419D02*
X135073810Y-107372419D01*
X134426190Y-108372419D02*
X134426190Y-107848609D01*
X134426190Y-107848609D02*
X134464285Y-107753371D01*
X134464285Y-107753371D02*
X134540476Y-107705752D01*
X134540476Y-107705752D02*
X134692857Y-107705752D01*
X134692857Y-107705752D02*
X134769047Y-107753371D01*
X134426190Y-108324800D02*
X134502381Y-108372419D01*
X134502381Y-108372419D02*
X134692857Y-108372419D01*
X134692857Y-108372419D02*
X134769047Y-108324800D01*
X134769047Y-108324800D02*
X134807143Y-108229561D01*
X134807143Y-108229561D02*
X134807143Y-108134323D01*
X134807143Y-108134323D02*
X134769047Y-108039085D01*
X134769047Y-108039085D02*
X134692857Y-107991466D01*
X134692857Y-107991466D02*
X134502381Y-107991466D01*
X134502381Y-107991466D02*
X134426190Y-107943847D01*
X134121428Y-107705752D02*
X133930952Y-108372419D01*
X133740475Y-107705752D02*
X133930952Y-108372419D01*
X133930952Y-108372419D02*
X134007142Y-108610514D01*
X134007142Y-108610514D02*
X134045237Y-108658133D01*
X134045237Y-108658133D02*
X134121428Y-108705752D01*
X133511904Y-107372419D02*
X133321428Y-108372419D01*
X133321428Y-108372419D02*
X133169047Y-107658133D01*
X133169047Y-107658133D02*
X133016666Y-108372419D01*
X133016666Y-108372419D02*
X132826190Y-107372419D01*
X132178570Y-108372419D02*
X132178570Y-107848609D01*
X132178570Y-107848609D02*
X132216665Y-107753371D01*
X132216665Y-107753371D02*
X132292856Y-107705752D01*
X132292856Y-107705752D02*
X132445237Y-107705752D01*
X132445237Y-107705752D02*
X132521427Y-107753371D01*
X132178570Y-108324800D02*
X132254761Y-108372419D01*
X132254761Y-108372419D02*
X132445237Y-108372419D01*
X132445237Y-108372419D02*
X132521427Y-108324800D01*
X132521427Y-108324800D02*
X132559523Y-108229561D01*
X132559523Y-108229561D02*
X132559523Y-108134323D01*
X132559523Y-108134323D02*
X132521427Y-108039085D01*
X132521427Y-108039085D02*
X132445237Y-107991466D01*
X132445237Y-107991466D02*
X132254761Y-107991466D01*
X132254761Y-107991466D02*
X132178570Y-107943847D01*
X131873808Y-107705752D02*
X131683332Y-108372419D01*
X131492855Y-107705752D02*
X131683332Y-108372419D01*
X131683332Y-108372419D02*
X131759522Y-108610514D01*
X131759522Y-108610514D02*
X131797617Y-108658133D01*
X131797617Y-108658133D02*
X131873808Y-108705752D01*
X137616667Y-93820985D02*
X137616667Y-93020985D01*
X137616667Y-93020985D02*
X137426191Y-93020985D01*
X137426191Y-93020985D02*
X137311905Y-93059080D01*
X137311905Y-93059080D02*
X137235715Y-93135270D01*
X137235715Y-93135270D02*
X137197620Y-93211461D01*
X137197620Y-93211461D02*
X137159524Y-93363842D01*
X137159524Y-93363842D02*
X137159524Y-93478128D01*
X137159524Y-93478128D02*
X137197620Y-93630509D01*
X137197620Y-93630509D02*
X137235715Y-93706699D01*
X137235715Y-93706699D02*
X137311905Y-93782890D01*
X137311905Y-93782890D02*
X137426191Y-93820985D01*
X137426191Y-93820985D02*
X137616667Y-93820985D01*
X136473810Y-93820985D02*
X136473810Y-93401937D01*
X136473810Y-93401937D02*
X136511905Y-93325747D01*
X136511905Y-93325747D02*
X136588096Y-93287651D01*
X136588096Y-93287651D02*
X136740477Y-93287651D01*
X136740477Y-93287651D02*
X136816667Y-93325747D01*
X136473810Y-93782890D02*
X136550001Y-93820985D01*
X136550001Y-93820985D02*
X136740477Y-93820985D01*
X136740477Y-93820985D02*
X136816667Y-93782890D01*
X136816667Y-93782890D02*
X136854763Y-93706699D01*
X136854763Y-93706699D02*
X136854763Y-93630509D01*
X136854763Y-93630509D02*
X136816667Y-93554318D01*
X136816667Y-93554318D02*
X136740477Y-93516223D01*
X136740477Y-93516223D02*
X136550001Y-93516223D01*
X136550001Y-93516223D02*
X136473810Y-93478128D01*
X136092857Y-93820985D02*
X136092857Y-93287651D01*
X136092857Y-93440032D02*
X136054762Y-93363842D01*
X136054762Y-93363842D02*
X136016667Y-93325747D01*
X136016667Y-93325747D02*
X135940476Y-93287651D01*
X135940476Y-93287651D02*
X135864286Y-93287651D01*
X135597619Y-93820985D02*
X135597619Y-93287651D01*
X135597619Y-93440032D02*
X135559524Y-93363842D01*
X135559524Y-93363842D02*
X135521429Y-93325747D01*
X135521429Y-93325747D02*
X135445238Y-93287651D01*
X135445238Y-93287651D02*
X135369048Y-93287651D01*
X134797619Y-93782890D02*
X134873810Y-93820985D01*
X134873810Y-93820985D02*
X135026191Y-93820985D01*
X135026191Y-93820985D02*
X135102381Y-93782890D01*
X135102381Y-93782890D02*
X135140477Y-93706699D01*
X135140477Y-93706699D02*
X135140477Y-93401937D01*
X135140477Y-93401937D02*
X135102381Y-93325747D01*
X135102381Y-93325747D02*
X135026191Y-93287651D01*
X135026191Y-93287651D02*
X134873810Y-93287651D01*
X134873810Y-93287651D02*
X134797619Y-93325747D01*
X134797619Y-93325747D02*
X134759524Y-93401937D01*
X134759524Y-93401937D02*
X134759524Y-93478128D01*
X134759524Y-93478128D02*
X135140477Y-93554318D01*
X134416667Y-93287651D02*
X134416667Y-93820985D01*
X134416667Y-93363842D02*
X134378572Y-93325747D01*
X134378572Y-93325747D02*
X134302382Y-93287651D01*
X134302382Y-93287651D02*
X134188096Y-93287651D01*
X134188096Y-93287651D02*
X134111905Y-93325747D01*
X134111905Y-93325747D02*
X134073810Y-93401937D01*
X134073810Y-93401937D02*
X134073810Y-93820985D01*
X132930952Y-93440032D02*
X132930952Y-93820985D01*
X133197619Y-93020985D02*
X132930952Y-93440032D01*
X132930952Y-93440032D02*
X132664286Y-93020985D01*
X132283334Y-93820985D02*
X132359524Y-93782890D01*
X132359524Y-93782890D02*
X132397619Y-93744794D01*
X132397619Y-93744794D02*
X132435715Y-93668604D01*
X132435715Y-93668604D02*
X132435715Y-93440032D01*
X132435715Y-93440032D02*
X132397619Y-93363842D01*
X132397619Y-93363842D02*
X132359524Y-93325747D01*
X132359524Y-93325747D02*
X132283334Y-93287651D01*
X132283334Y-93287651D02*
X132169048Y-93287651D01*
X132169048Y-93287651D02*
X132092857Y-93325747D01*
X132092857Y-93325747D02*
X132054762Y-93363842D01*
X132054762Y-93363842D02*
X132016667Y-93440032D01*
X132016667Y-93440032D02*
X132016667Y-93668604D01*
X132016667Y-93668604D02*
X132054762Y-93744794D01*
X132054762Y-93744794D02*
X132092857Y-93782890D01*
X132092857Y-93782890D02*
X132169048Y-93820985D01*
X132169048Y-93820985D02*
X132283334Y-93820985D01*
X131330952Y-93287651D02*
X131330952Y-93820985D01*
X131673809Y-93287651D02*
X131673809Y-93706699D01*
X131673809Y-93706699D02*
X131635714Y-93782890D01*
X131635714Y-93782890D02*
X131559524Y-93820985D01*
X131559524Y-93820985D02*
X131445238Y-93820985D01*
X131445238Y-93820985D02*
X131369047Y-93782890D01*
X131369047Y-93782890D02*
X131330952Y-93744794D01*
X130949999Y-93287651D02*
X130949999Y-93820985D01*
X130949999Y-93363842D02*
X130911904Y-93325747D01*
X130911904Y-93325747D02*
X130835714Y-93287651D01*
X130835714Y-93287651D02*
X130721428Y-93287651D01*
X130721428Y-93287651D02*
X130645237Y-93325747D01*
X130645237Y-93325747D02*
X130607142Y-93401937D01*
X130607142Y-93401937D02*
X130607142Y-93820985D01*
X129883332Y-93287651D02*
X129883332Y-93935270D01*
X129883332Y-93935270D02*
X129921427Y-94011461D01*
X129921427Y-94011461D02*
X129959523Y-94049556D01*
X129959523Y-94049556D02*
X130035713Y-94087651D01*
X130035713Y-94087651D02*
X130149999Y-94087651D01*
X130149999Y-94087651D02*
X130226189Y-94049556D01*
X129883332Y-93782890D02*
X129959523Y-93820985D01*
X129959523Y-93820985D02*
X130111904Y-93820985D01*
X130111904Y-93820985D02*
X130188094Y-93782890D01*
X130188094Y-93782890D02*
X130226189Y-93744794D01*
X130226189Y-93744794D02*
X130264285Y-93668604D01*
X130264285Y-93668604D02*
X130264285Y-93440032D01*
X130264285Y-93440032D02*
X130226189Y-93363842D01*
X130226189Y-93363842D02*
X130188094Y-93325747D01*
X130188094Y-93325747D02*
X130111904Y-93287651D01*
X130111904Y-93287651D02*
X129959523Y-93287651D01*
X129959523Y-93287651D02*
X129883332Y-93325747D01*
X140111906Y-94575606D02*
X139921430Y-95108940D01*
X139730953Y-94575606D02*
X139921430Y-95108940D01*
X139921430Y-95108940D02*
X139997620Y-95299416D01*
X139997620Y-95299416D02*
X140035715Y-95337511D01*
X140035715Y-95337511D02*
X140111906Y-95375606D01*
X139311906Y-95108940D02*
X139388096Y-95070845D01*
X139388096Y-95070845D02*
X139426191Y-95032749D01*
X139426191Y-95032749D02*
X139464287Y-94956559D01*
X139464287Y-94956559D02*
X139464287Y-94727987D01*
X139464287Y-94727987D02*
X139426191Y-94651797D01*
X139426191Y-94651797D02*
X139388096Y-94613702D01*
X139388096Y-94613702D02*
X139311906Y-94575606D01*
X139311906Y-94575606D02*
X139197620Y-94575606D01*
X139197620Y-94575606D02*
X139121429Y-94613702D01*
X139121429Y-94613702D02*
X139083334Y-94651797D01*
X139083334Y-94651797D02*
X139045239Y-94727987D01*
X139045239Y-94727987D02*
X139045239Y-94956559D01*
X139045239Y-94956559D02*
X139083334Y-95032749D01*
X139083334Y-95032749D02*
X139121429Y-95070845D01*
X139121429Y-95070845D02*
X139197620Y-95108940D01*
X139197620Y-95108940D02*
X139311906Y-95108940D01*
X138359524Y-94575606D02*
X138359524Y-95108940D01*
X138702381Y-94575606D02*
X138702381Y-94994654D01*
X138702381Y-94994654D02*
X138664286Y-95070845D01*
X138664286Y-95070845D02*
X138588096Y-95108940D01*
X138588096Y-95108940D02*
X138473810Y-95108940D01*
X138473810Y-95108940D02*
X138397619Y-95070845D01*
X138397619Y-95070845D02*
X138359524Y-95032749D01*
X137978571Y-94575606D02*
X137978571Y-95108940D01*
X137978571Y-94651797D02*
X137940476Y-94613702D01*
X137940476Y-94613702D02*
X137864286Y-94575606D01*
X137864286Y-94575606D02*
X137750000Y-94575606D01*
X137750000Y-94575606D02*
X137673809Y-94613702D01*
X137673809Y-94613702D02*
X137635714Y-94689892D01*
X137635714Y-94689892D02*
X137635714Y-95108940D01*
X136911904Y-94575606D02*
X136911904Y-95223225D01*
X136911904Y-95223225D02*
X136949999Y-95299416D01*
X136949999Y-95299416D02*
X136988095Y-95337511D01*
X136988095Y-95337511D02*
X137064285Y-95375606D01*
X137064285Y-95375606D02*
X137178571Y-95375606D01*
X137178571Y-95375606D02*
X137254761Y-95337511D01*
X136911904Y-95070845D02*
X136988095Y-95108940D01*
X136988095Y-95108940D02*
X137140476Y-95108940D01*
X137140476Y-95108940D02*
X137216666Y-95070845D01*
X137216666Y-95070845D02*
X137254761Y-95032749D01*
X137254761Y-95032749D02*
X137292857Y-94956559D01*
X137292857Y-94956559D02*
X137292857Y-94727987D01*
X137292857Y-94727987D02*
X137254761Y-94651797D01*
X137254761Y-94651797D02*
X137216666Y-94613702D01*
X137216666Y-94613702D02*
X137140476Y-94575606D01*
X137140476Y-94575606D02*
X136988095Y-94575606D01*
X136988095Y-94575606D02*
X136911904Y-94613702D01*
X136188094Y-95108940D02*
X136188094Y-94308940D01*
X136188094Y-95070845D02*
X136264285Y-95108940D01*
X136264285Y-95108940D02*
X136416666Y-95108940D01*
X136416666Y-95108940D02*
X136492856Y-95070845D01*
X136492856Y-95070845D02*
X136530951Y-95032749D01*
X136530951Y-95032749D02*
X136569047Y-94956559D01*
X136569047Y-94956559D02*
X136569047Y-94727987D01*
X136569047Y-94727987D02*
X136530951Y-94651797D01*
X136530951Y-94651797D02*
X136492856Y-94613702D01*
X136492856Y-94613702D02*
X136416666Y-94575606D01*
X136416666Y-94575606D02*
X136264285Y-94575606D01*
X136264285Y-94575606D02*
X136188094Y-94613702D01*
X135845237Y-94385130D02*
X135807141Y-94347035D01*
X135807141Y-94347035D02*
X135730951Y-94308940D01*
X135730951Y-94308940D02*
X135540475Y-94308940D01*
X135540475Y-94308940D02*
X135464284Y-94347035D01*
X135464284Y-94347035D02*
X135426189Y-94385130D01*
X135426189Y-94385130D02*
X135388094Y-94461321D01*
X135388094Y-94461321D02*
X135388094Y-94537511D01*
X135388094Y-94537511D02*
X135426189Y-94651797D01*
X135426189Y-94651797D02*
X135883332Y-95108940D01*
X135883332Y-95108940D02*
X135388094Y-95108940D01*
X134702379Y-94575606D02*
X134702379Y-95108940D01*
X134892855Y-94270845D02*
X135083332Y-94842273D01*
X135083332Y-94842273D02*
X134588093Y-94842273D01*
X133788093Y-94727987D02*
X133826188Y-94689892D01*
X133826188Y-94689892D02*
X133902379Y-94651797D01*
X133902379Y-94651797D02*
X133978569Y-94651797D01*
X133978569Y-94651797D02*
X134054760Y-94689892D01*
X134054760Y-94689892D02*
X134092855Y-94727987D01*
X134092855Y-94727987D02*
X134130950Y-94804178D01*
X134130950Y-94804178D02*
X134130950Y-94880368D01*
X134130950Y-94880368D02*
X134092855Y-94956559D01*
X134092855Y-94956559D02*
X134054760Y-94994654D01*
X134054760Y-94994654D02*
X133978569Y-95032749D01*
X133978569Y-95032749D02*
X133902379Y-95032749D01*
X133902379Y-95032749D02*
X133826188Y-94994654D01*
X133826188Y-94994654D02*
X133788093Y-94956559D01*
X133788093Y-94651797D02*
X133788093Y-94956559D01*
X133788093Y-94956559D02*
X133749998Y-94994654D01*
X133749998Y-94994654D02*
X133711903Y-94994654D01*
X133711903Y-94994654D02*
X133635712Y-94956559D01*
X133635712Y-94956559D02*
X133597617Y-94880368D01*
X133597617Y-94880368D02*
X133597617Y-94689892D01*
X133597617Y-94689892D02*
X133673808Y-94575606D01*
X133673808Y-94575606D02*
X133788093Y-94499416D01*
X133788093Y-94499416D02*
X133940474Y-94461321D01*
X133940474Y-94461321D02*
X134092855Y-94499416D01*
X134092855Y-94499416D02*
X134207141Y-94575606D01*
X134207141Y-94575606D02*
X134283331Y-94689892D01*
X134283331Y-94689892D02*
X134321427Y-94842273D01*
X134321427Y-94842273D02*
X134283331Y-94994654D01*
X134283331Y-94994654D02*
X134207141Y-95108940D01*
X134207141Y-95108940D02*
X134092855Y-95185130D01*
X134092855Y-95185130D02*
X133940474Y-95223225D01*
X133940474Y-95223225D02*
X133788093Y-95185130D01*
X133788093Y-95185130D02*
X133673808Y-95108940D01*
X132911903Y-94575606D02*
X132911903Y-95223225D01*
X132911903Y-95223225D02*
X132949998Y-95299416D01*
X132949998Y-95299416D02*
X132988094Y-95337511D01*
X132988094Y-95337511D02*
X133064284Y-95375606D01*
X133064284Y-95375606D02*
X133178570Y-95375606D01*
X133178570Y-95375606D02*
X133254760Y-95337511D01*
X132911903Y-95070845D02*
X132988094Y-95108940D01*
X132988094Y-95108940D02*
X133140475Y-95108940D01*
X133140475Y-95108940D02*
X133216665Y-95070845D01*
X133216665Y-95070845D02*
X133254760Y-95032749D01*
X133254760Y-95032749D02*
X133292856Y-94956559D01*
X133292856Y-94956559D02*
X133292856Y-94727987D01*
X133292856Y-94727987D02*
X133254760Y-94651797D01*
X133254760Y-94651797D02*
X133216665Y-94613702D01*
X133216665Y-94613702D02*
X133140475Y-94575606D01*
X133140475Y-94575606D02*
X132988094Y-94575606D01*
X132988094Y-94575606D02*
X132911903Y-94613702D01*
X132530950Y-95108940D02*
X132530950Y-94575606D01*
X132530950Y-94651797D02*
X132492855Y-94613702D01*
X132492855Y-94613702D02*
X132416665Y-94575606D01*
X132416665Y-94575606D02*
X132302379Y-94575606D01*
X132302379Y-94575606D02*
X132226188Y-94613702D01*
X132226188Y-94613702D02*
X132188093Y-94689892D01*
X132188093Y-94689892D02*
X132188093Y-95108940D01*
X132188093Y-94689892D02*
X132149998Y-94613702D01*
X132149998Y-94613702D02*
X132073807Y-94575606D01*
X132073807Y-94575606D02*
X131959522Y-94575606D01*
X131959522Y-94575606D02*
X131883331Y-94613702D01*
X131883331Y-94613702D02*
X131845236Y-94689892D01*
X131845236Y-94689892D02*
X131845236Y-95108940D01*
X131121426Y-95108940D02*
X131121426Y-94689892D01*
X131121426Y-94689892D02*
X131159521Y-94613702D01*
X131159521Y-94613702D02*
X131235712Y-94575606D01*
X131235712Y-94575606D02*
X131388093Y-94575606D01*
X131388093Y-94575606D02*
X131464283Y-94613702D01*
X131121426Y-95070845D02*
X131197617Y-95108940D01*
X131197617Y-95108940D02*
X131388093Y-95108940D01*
X131388093Y-95108940D02*
X131464283Y-95070845D01*
X131464283Y-95070845D02*
X131502379Y-94994654D01*
X131502379Y-94994654D02*
X131502379Y-94918464D01*
X131502379Y-94918464D02*
X131464283Y-94842273D01*
X131464283Y-94842273D02*
X131388093Y-94804178D01*
X131388093Y-94804178D02*
X131197617Y-94804178D01*
X131197617Y-94804178D02*
X131121426Y-94766083D01*
X130740473Y-95108940D02*
X130740473Y-94575606D01*
X130740473Y-94308940D02*
X130778569Y-94347035D01*
X130778569Y-94347035D02*
X130740473Y-94385130D01*
X130740473Y-94385130D02*
X130702378Y-94347035D01*
X130702378Y-94347035D02*
X130740473Y-94308940D01*
X130740473Y-94308940D02*
X130740473Y-94385130D01*
X130245236Y-95108940D02*
X130321426Y-95070845D01*
X130321426Y-95070845D02*
X130359521Y-94994654D01*
X130359521Y-94994654D02*
X130359521Y-94308940D01*
X129940473Y-95032749D02*
X129902378Y-95070845D01*
X129902378Y-95070845D02*
X129940473Y-95108940D01*
X129940473Y-95108940D02*
X129978569Y-95070845D01*
X129978569Y-95070845D02*
X129940473Y-95032749D01*
X129940473Y-95032749D02*
X129940473Y-95108940D01*
X129216664Y-95070845D02*
X129292855Y-95108940D01*
X129292855Y-95108940D02*
X129445236Y-95108940D01*
X129445236Y-95108940D02*
X129521426Y-95070845D01*
X129521426Y-95070845D02*
X129559521Y-95032749D01*
X129559521Y-95032749D02*
X129597617Y-94956559D01*
X129597617Y-94956559D02*
X129597617Y-94727987D01*
X129597617Y-94727987D02*
X129559521Y-94651797D01*
X129559521Y-94651797D02*
X129521426Y-94613702D01*
X129521426Y-94613702D02*
X129445236Y-94575606D01*
X129445236Y-94575606D02*
X129292855Y-94575606D01*
X129292855Y-94575606D02*
X129216664Y-94613702D01*
X128759522Y-95108940D02*
X128835712Y-95070845D01*
X128835712Y-95070845D02*
X128873807Y-95032749D01*
X128873807Y-95032749D02*
X128911903Y-94956559D01*
X128911903Y-94956559D02*
X128911903Y-94727987D01*
X128911903Y-94727987D02*
X128873807Y-94651797D01*
X128873807Y-94651797D02*
X128835712Y-94613702D01*
X128835712Y-94613702D02*
X128759522Y-94575606D01*
X128759522Y-94575606D02*
X128645236Y-94575606D01*
X128645236Y-94575606D02*
X128569045Y-94613702D01*
X128569045Y-94613702D02*
X128530950Y-94651797D01*
X128530950Y-94651797D02*
X128492855Y-94727987D01*
X128492855Y-94727987D02*
X128492855Y-94956559D01*
X128492855Y-94956559D02*
X128530950Y-95032749D01*
X128530950Y-95032749D02*
X128569045Y-95070845D01*
X128569045Y-95070845D02*
X128645236Y-95108940D01*
X128645236Y-95108940D02*
X128759522Y-95108940D01*
X128149997Y-95108940D02*
X128149997Y-94575606D01*
X128149997Y-94651797D02*
X128111902Y-94613702D01*
X128111902Y-94613702D02*
X128035712Y-94575606D01*
X128035712Y-94575606D02*
X127921426Y-94575606D01*
X127921426Y-94575606D02*
X127845235Y-94613702D01*
X127845235Y-94613702D02*
X127807140Y-94689892D01*
X127807140Y-94689892D02*
X127807140Y-95108940D01*
X127807140Y-94689892D02*
X127769045Y-94613702D01*
X127769045Y-94613702D02*
X127692854Y-94575606D01*
X127692854Y-94575606D02*
X127578569Y-94575606D01*
X127578569Y-94575606D02*
X127502378Y-94613702D01*
X127502378Y-94613702D02*
X127464283Y-94689892D01*
X127464283Y-94689892D02*
X127464283Y-95108940D01*
X148264288Y-96396895D02*
X148264288Y-95596895D01*
X147921431Y-96396895D02*
X147921431Y-95977847D01*
X147921431Y-95977847D02*
X147959526Y-95901657D01*
X147959526Y-95901657D02*
X148035717Y-95863561D01*
X148035717Y-95863561D02*
X148150003Y-95863561D01*
X148150003Y-95863561D02*
X148226193Y-95901657D01*
X148226193Y-95901657D02*
X148264288Y-95939752D01*
X147654764Y-95863561D02*
X147350002Y-95863561D01*
X147540478Y-95596895D02*
X147540478Y-96282609D01*
X147540478Y-96282609D02*
X147502383Y-96358800D01*
X147502383Y-96358800D02*
X147426193Y-96396895D01*
X147426193Y-96396895D02*
X147350002Y-96396895D01*
X147197621Y-95863561D02*
X146892859Y-95863561D01*
X147083335Y-95596895D02*
X147083335Y-96282609D01*
X147083335Y-96282609D02*
X147045240Y-96358800D01*
X147045240Y-96358800D02*
X146969050Y-96396895D01*
X146969050Y-96396895D02*
X146892859Y-96396895D01*
X146626192Y-95863561D02*
X146626192Y-96663561D01*
X146626192Y-95901657D02*
X146550002Y-95863561D01*
X146550002Y-95863561D02*
X146397621Y-95863561D01*
X146397621Y-95863561D02*
X146321430Y-95901657D01*
X146321430Y-95901657D02*
X146283335Y-95939752D01*
X146283335Y-95939752D02*
X146245240Y-96015942D01*
X146245240Y-96015942D02*
X146245240Y-96244514D01*
X146245240Y-96244514D02*
X146283335Y-96320704D01*
X146283335Y-96320704D02*
X146321430Y-96358800D01*
X146321430Y-96358800D02*
X146397621Y-96396895D01*
X146397621Y-96396895D02*
X146550002Y-96396895D01*
X146550002Y-96396895D02*
X146626192Y-96358800D01*
X145940478Y-96358800D02*
X145864287Y-96396895D01*
X145864287Y-96396895D02*
X145711906Y-96396895D01*
X145711906Y-96396895D02*
X145635716Y-96358800D01*
X145635716Y-96358800D02*
X145597620Y-96282609D01*
X145597620Y-96282609D02*
X145597620Y-96244514D01*
X145597620Y-96244514D02*
X145635716Y-96168323D01*
X145635716Y-96168323D02*
X145711906Y-96130228D01*
X145711906Y-96130228D02*
X145826192Y-96130228D01*
X145826192Y-96130228D02*
X145902382Y-96092133D01*
X145902382Y-96092133D02*
X145940478Y-96015942D01*
X145940478Y-96015942D02*
X145940478Y-95977847D01*
X145940478Y-95977847D02*
X145902382Y-95901657D01*
X145902382Y-95901657D02*
X145826192Y-95863561D01*
X145826192Y-95863561D02*
X145711906Y-95863561D01*
X145711906Y-95863561D02*
X145635716Y-95901657D01*
X145254763Y-96320704D02*
X145216668Y-96358800D01*
X145216668Y-96358800D02*
X145254763Y-96396895D01*
X145254763Y-96396895D02*
X145292859Y-96358800D01*
X145292859Y-96358800D02*
X145254763Y-96320704D01*
X145254763Y-96320704D02*
X145254763Y-96396895D01*
X145254763Y-95901657D02*
X145216668Y-95939752D01*
X145216668Y-95939752D02*
X145254763Y-95977847D01*
X145254763Y-95977847D02*
X145292859Y-95939752D01*
X145292859Y-95939752D02*
X145254763Y-95901657D01*
X145254763Y-95901657D02*
X145254763Y-95977847D01*
X144302383Y-95558800D02*
X144988097Y-96587371D01*
X143464288Y-95558800D02*
X144150002Y-96587371D01*
X142854764Y-95863561D02*
X142854764Y-96511180D01*
X142854764Y-96511180D02*
X142892859Y-96587371D01*
X142892859Y-96587371D02*
X142930955Y-96625466D01*
X142930955Y-96625466D02*
X143007145Y-96663561D01*
X143007145Y-96663561D02*
X143121431Y-96663561D01*
X143121431Y-96663561D02*
X143197621Y-96625466D01*
X142854764Y-96358800D02*
X142930955Y-96396895D01*
X142930955Y-96396895D02*
X143083336Y-96396895D01*
X143083336Y-96396895D02*
X143159526Y-96358800D01*
X143159526Y-96358800D02*
X143197621Y-96320704D01*
X143197621Y-96320704D02*
X143235717Y-96244514D01*
X143235717Y-96244514D02*
X143235717Y-96015942D01*
X143235717Y-96015942D02*
X143197621Y-95939752D01*
X143197621Y-95939752D02*
X143159526Y-95901657D01*
X143159526Y-95901657D02*
X143083336Y-95863561D01*
X143083336Y-95863561D02*
X142930955Y-95863561D01*
X142930955Y-95863561D02*
X142854764Y-95901657D01*
X142473811Y-96396895D02*
X142473811Y-95863561D01*
X142473811Y-95596895D02*
X142511907Y-95634990D01*
X142511907Y-95634990D02*
X142473811Y-95673085D01*
X142473811Y-95673085D02*
X142435716Y-95634990D01*
X142435716Y-95634990D02*
X142473811Y-95596895D01*
X142473811Y-95596895D02*
X142473811Y-95673085D01*
X142207145Y-95863561D02*
X141902383Y-95863561D01*
X142092859Y-95596895D02*
X142092859Y-96282609D01*
X142092859Y-96282609D02*
X142054764Y-96358800D01*
X142054764Y-96358800D02*
X141978574Y-96396895D01*
X141978574Y-96396895D02*
X141902383Y-96396895D01*
X141635716Y-96396895D02*
X141635716Y-95596895D01*
X141292859Y-96396895D02*
X141292859Y-95977847D01*
X141292859Y-95977847D02*
X141330954Y-95901657D01*
X141330954Y-95901657D02*
X141407145Y-95863561D01*
X141407145Y-95863561D02*
X141521431Y-95863561D01*
X141521431Y-95863561D02*
X141597621Y-95901657D01*
X141597621Y-95901657D02*
X141635716Y-95939752D01*
X140569049Y-95863561D02*
X140569049Y-96396895D01*
X140911906Y-95863561D02*
X140911906Y-96282609D01*
X140911906Y-96282609D02*
X140873811Y-96358800D01*
X140873811Y-96358800D02*
X140797621Y-96396895D01*
X140797621Y-96396895D02*
X140683335Y-96396895D01*
X140683335Y-96396895D02*
X140607144Y-96358800D01*
X140607144Y-96358800D02*
X140569049Y-96320704D01*
X140188096Y-96396895D02*
X140188096Y-95596895D01*
X140188096Y-95901657D02*
X140111906Y-95863561D01*
X140111906Y-95863561D02*
X139959525Y-95863561D01*
X139959525Y-95863561D02*
X139883334Y-95901657D01*
X139883334Y-95901657D02*
X139845239Y-95939752D01*
X139845239Y-95939752D02*
X139807144Y-96015942D01*
X139807144Y-96015942D02*
X139807144Y-96244514D01*
X139807144Y-96244514D02*
X139845239Y-96320704D01*
X139845239Y-96320704D02*
X139883334Y-96358800D01*
X139883334Y-96358800D02*
X139959525Y-96396895D01*
X139959525Y-96396895D02*
X140111906Y-96396895D01*
X140111906Y-96396895D02*
X140188096Y-96358800D01*
X139464286Y-96320704D02*
X139426191Y-96358800D01*
X139426191Y-96358800D02*
X139464286Y-96396895D01*
X139464286Y-96396895D02*
X139502382Y-96358800D01*
X139502382Y-96358800D02*
X139464286Y-96320704D01*
X139464286Y-96320704D02*
X139464286Y-96396895D01*
X138740477Y-96358800D02*
X138816668Y-96396895D01*
X138816668Y-96396895D02*
X138969049Y-96396895D01*
X138969049Y-96396895D02*
X139045239Y-96358800D01*
X139045239Y-96358800D02*
X139083334Y-96320704D01*
X139083334Y-96320704D02*
X139121430Y-96244514D01*
X139121430Y-96244514D02*
X139121430Y-96015942D01*
X139121430Y-96015942D02*
X139083334Y-95939752D01*
X139083334Y-95939752D02*
X139045239Y-95901657D01*
X139045239Y-95901657D02*
X138969049Y-95863561D01*
X138969049Y-95863561D02*
X138816668Y-95863561D01*
X138816668Y-95863561D02*
X138740477Y-95901657D01*
X138283335Y-96396895D02*
X138359525Y-96358800D01*
X138359525Y-96358800D02*
X138397620Y-96320704D01*
X138397620Y-96320704D02*
X138435716Y-96244514D01*
X138435716Y-96244514D02*
X138435716Y-96015942D01*
X138435716Y-96015942D02*
X138397620Y-95939752D01*
X138397620Y-95939752D02*
X138359525Y-95901657D01*
X138359525Y-95901657D02*
X138283335Y-95863561D01*
X138283335Y-95863561D02*
X138169049Y-95863561D01*
X138169049Y-95863561D02*
X138092858Y-95901657D01*
X138092858Y-95901657D02*
X138054763Y-95939752D01*
X138054763Y-95939752D02*
X138016668Y-96015942D01*
X138016668Y-96015942D02*
X138016668Y-96244514D01*
X138016668Y-96244514D02*
X138054763Y-96320704D01*
X138054763Y-96320704D02*
X138092858Y-96358800D01*
X138092858Y-96358800D02*
X138169049Y-96396895D01*
X138169049Y-96396895D02*
X138283335Y-96396895D01*
X137673810Y-96396895D02*
X137673810Y-95863561D01*
X137673810Y-95939752D02*
X137635715Y-95901657D01*
X137635715Y-95901657D02*
X137559525Y-95863561D01*
X137559525Y-95863561D02*
X137445239Y-95863561D01*
X137445239Y-95863561D02*
X137369048Y-95901657D01*
X137369048Y-95901657D02*
X137330953Y-95977847D01*
X137330953Y-95977847D02*
X137330953Y-96396895D01*
X137330953Y-95977847D02*
X137292858Y-95901657D01*
X137292858Y-95901657D02*
X137216667Y-95863561D01*
X137216667Y-95863561D02*
X137102382Y-95863561D01*
X137102382Y-95863561D02*
X137026191Y-95901657D01*
X137026191Y-95901657D02*
X136988096Y-95977847D01*
X136988096Y-95977847D02*
X136988096Y-96396895D01*
X136035715Y-95558800D02*
X136721429Y-96587371D01*
X135845239Y-95863561D02*
X135654763Y-96396895D01*
X135464286Y-95863561D02*
X135654763Y-96396895D01*
X135654763Y-96396895D02*
X135730953Y-96587371D01*
X135730953Y-96587371D02*
X135769048Y-96625466D01*
X135769048Y-96625466D02*
X135845239Y-96663561D01*
X135045239Y-96396895D02*
X135121429Y-96358800D01*
X135121429Y-96358800D02*
X135159524Y-96320704D01*
X135159524Y-96320704D02*
X135197620Y-96244514D01*
X135197620Y-96244514D02*
X135197620Y-96015942D01*
X135197620Y-96015942D02*
X135159524Y-95939752D01*
X135159524Y-95939752D02*
X135121429Y-95901657D01*
X135121429Y-95901657D02*
X135045239Y-95863561D01*
X135045239Y-95863561D02*
X134930953Y-95863561D01*
X134930953Y-95863561D02*
X134854762Y-95901657D01*
X134854762Y-95901657D02*
X134816667Y-95939752D01*
X134816667Y-95939752D02*
X134778572Y-96015942D01*
X134778572Y-96015942D02*
X134778572Y-96244514D01*
X134778572Y-96244514D02*
X134816667Y-96320704D01*
X134816667Y-96320704D02*
X134854762Y-96358800D01*
X134854762Y-96358800D02*
X134930953Y-96396895D01*
X134930953Y-96396895D02*
X135045239Y-96396895D01*
X134092857Y-95863561D02*
X134092857Y-96396895D01*
X134435714Y-95863561D02*
X134435714Y-96282609D01*
X134435714Y-96282609D02*
X134397619Y-96358800D01*
X134397619Y-96358800D02*
X134321429Y-96396895D01*
X134321429Y-96396895D02*
X134207143Y-96396895D01*
X134207143Y-96396895D02*
X134130952Y-96358800D01*
X134130952Y-96358800D02*
X134092857Y-96320704D01*
X133711904Y-95863561D02*
X133711904Y-96396895D01*
X133711904Y-95939752D02*
X133673809Y-95901657D01*
X133673809Y-95901657D02*
X133597619Y-95863561D01*
X133597619Y-95863561D02*
X133483333Y-95863561D01*
X133483333Y-95863561D02*
X133407142Y-95901657D01*
X133407142Y-95901657D02*
X133369047Y-95977847D01*
X133369047Y-95977847D02*
X133369047Y-96396895D01*
X132645237Y-95863561D02*
X132645237Y-96511180D01*
X132645237Y-96511180D02*
X132683332Y-96587371D01*
X132683332Y-96587371D02*
X132721428Y-96625466D01*
X132721428Y-96625466D02*
X132797618Y-96663561D01*
X132797618Y-96663561D02*
X132911904Y-96663561D01*
X132911904Y-96663561D02*
X132988094Y-96625466D01*
X132645237Y-96358800D02*
X132721428Y-96396895D01*
X132721428Y-96396895D02*
X132873809Y-96396895D01*
X132873809Y-96396895D02*
X132949999Y-96358800D01*
X132949999Y-96358800D02*
X132988094Y-96320704D01*
X132988094Y-96320704D02*
X133026190Y-96244514D01*
X133026190Y-96244514D02*
X133026190Y-96015942D01*
X133026190Y-96015942D02*
X132988094Y-95939752D01*
X132988094Y-95939752D02*
X132949999Y-95901657D01*
X132949999Y-95901657D02*
X132873809Y-95863561D01*
X132873809Y-95863561D02*
X132721428Y-95863561D01*
X132721428Y-95863561D02*
X132645237Y-95901657D01*
X131921427Y-96396895D02*
X131921427Y-95596895D01*
X131921427Y-96358800D02*
X131997618Y-96396895D01*
X131997618Y-96396895D02*
X132149999Y-96396895D01*
X132149999Y-96396895D02*
X132226189Y-96358800D01*
X132226189Y-96358800D02*
X132264284Y-96320704D01*
X132264284Y-96320704D02*
X132302380Y-96244514D01*
X132302380Y-96244514D02*
X132302380Y-96015942D01*
X132302380Y-96015942D02*
X132264284Y-95939752D01*
X132264284Y-95939752D02*
X132226189Y-95901657D01*
X132226189Y-95901657D02*
X132149999Y-95863561D01*
X132149999Y-95863561D02*
X131997618Y-95863561D01*
X131997618Y-95863561D02*
X131921427Y-95901657D01*
X131578570Y-95673085D02*
X131540474Y-95634990D01*
X131540474Y-95634990D02*
X131464284Y-95596895D01*
X131464284Y-95596895D02*
X131273808Y-95596895D01*
X131273808Y-95596895D02*
X131197617Y-95634990D01*
X131197617Y-95634990D02*
X131159522Y-95673085D01*
X131159522Y-95673085D02*
X131121427Y-95749276D01*
X131121427Y-95749276D02*
X131121427Y-95825466D01*
X131121427Y-95825466D02*
X131159522Y-95939752D01*
X131159522Y-95939752D02*
X131616665Y-96396895D01*
X131616665Y-96396895D02*
X131121427Y-96396895D01*
X130435712Y-95863561D02*
X130435712Y-96396895D01*
X130626188Y-95558800D02*
X130816665Y-96130228D01*
X130816665Y-96130228D02*
X130321426Y-96130228D01*
X129445236Y-95558800D02*
X130130950Y-96587371D01*
X128911903Y-95977847D02*
X128797617Y-96015942D01*
X128797617Y-96015942D02*
X128759522Y-96054038D01*
X128759522Y-96054038D02*
X128721426Y-96130228D01*
X128721426Y-96130228D02*
X128721426Y-96244514D01*
X128721426Y-96244514D02*
X128759522Y-96320704D01*
X128759522Y-96320704D02*
X128797617Y-96358800D01*
X128797617Y-96358800D02*
X128873807Y-96396895D01*
X128873807Y-96396895D02*
X129178569Y-96396895D01*
X129178569Y-96396895D02*
X129178569Y-95596895D01*
X129178569Y-95596895D02*
X128911903Y-95596895D01*
X128911903Y-95596895D02*
X128835712Y-95634990D01*
X128835712Y-95634990D02*
X128797617Y-95673085D01*
X128797617Y-95673085D02*
X128759522Y-95749276D01*
X128759522Y-95749276D02*
X128759522Y-95825466D01*
X128759522Y-95825466D02*
X128797617Y-95901657D01*
X128797617Y-95901657D02*
X128835712Y-95939752D01*
X128835712Y-95939752D02*
X128911903Y-95977847D01*
X128911903Y-95977847D02*
X129178569Y-95977847D01*
X128035712Y-95863561D02*
X128035712Y-96396895D01*
X128378569Y-95863561D02*
X128378569Y-96282609D01*
X128378569Y-96282609D02*
X128340474Y-96358800D01*
X128340474Y-96358800D02*
X128264284Y-96396895D01*
X128264284Y-96396895D02*
X128149998Y-96396895D01*
X128149998Y-96396895D02*
X128073807Y-96358800D01*
X128073807Y-96358800D02*
X128035712Y-96320704D01*
X127654759Y-96396895D02*
X127654759Y-95863561D01*
X127654759Y-96015942D02*
X127616664Y-95939752D01*
X127616664Y-95939752D02*
X127578569Y-95901657D01*
X127578569Y-95901657D02*
X127502378Y-95863561D01*
X127502378Y-95863561D02*
X127426188Y-95863561D01*
X127159521Y-96396895D02*
X127159521Y-95596895D01*
X127159521Y-95901657D02*
X127083331Y-95863561D01*
X127083331Y-95863561D02*
X126930950Y-95863561D01*
X126930950Y-95863561D02*
X126854759Y-95901657D01*
X126854759Y-95901657D02*
X126816664Y-95939752D01*
X126816664Y-95939752D02*
X126778569Y-96015942D01*
X126778569Y-96015942D02*
X126778569Y-96244514D01*
X126778569Y-96244514D02*
X126816664Y-96320704D01*
X126816664Y-96320704D02*
X126854759Y-96358800D01*
X126854759Y-96358800D02*
X126930950Y-96396895D01*
X126930950Y-96396895D02*
X127083331Y-96396895D01*
X127083331Y-96396895D02*
X127159521Y-96358800D01*
X126473807Y-96358800D02*
X126359521Y-96396895D01*
X126359521Y-96396895D02*
X126169045Y-96396895D01*
X126169045Y-96396895D02*
X126092854Y-96358800D01*
X126092854Y-96358800D02*
X126054759Y-96320704D01*
X126054759Y-96320704D02*
X126016664Y-96244514D01*
X126016664Y-96244514D02*
X126016664Y-96168323D01*
X126016664Y-96168323D02*
X126054759Y-96092133D01*
X126054759Y-96092133D02*
X126092854Y-96054038D01*
X126092854Y-96054038D02*
X126169045Y-96015942D01*
X126169045Y-96015942D02*
X126321426Y-95977847D01*
X126321426Y-95977847D02*
X126397616Y-95939752D01*
X126397616Y-95939752D02*
X126435711Y-95901657D01*
X126435711Y-95901657D02*
X126473807Y-95825466D01*
X126473807Y-95825466D02*
X126473807Y-95749276D01*
X126473807Y-95749276D02*
X126435711Y-95673085D01*
X126435711Y-95673085D02*
X126397616Y-95634990D01*
X126397616Y-95634990D02*
X126321426Y-95596895D01*
X126321426Y-95596895D02*
X126130949Y-95596895D01*
X126130949Y-95596895D02*
X126016664Y-95634990D01*
X125369044Y-96358800D02*
X125445235Y-96396895D01*
X125445235Y-96396895D02*
X125597616Y-96396895D01*
X125597616Y-96396895D02*
X125673806Y-96358800D01*
X125673806Y-96358800D02*
X125711902Y-96282609D01*
X125711902Y-96282609D02*
X125711902Y-95977847D01*
X125711902Y-95977847D02*
X125673806Y-95901657D01*
X125673806Y-95901657D02*
X125597616Y-95863561D01*
X125597616Y-95863561D02*
X125445235Y-95863561D01*
X125445235Y-95863561D02*
X125369044Y-95901657D01*
X125369044Y-95901657D02*
X125330949Y-95977847D01*
X125330949Y-95977847D02*
X125330949Y-96054038D01*
X125330949Y-96054038D02*
X125711902Y-96130228D01*
X124645235Y-96358800D02*
X124721426Y-96396895D01*
X124721426Y-96396895D02*
X124873807Y-96396895D01*
X124873807Y-96396895D02*
X124949997Y-96358800D01*
X124949997Y-96358800D02*
X124988092Y-96320704D01*
X124988092Y-96320704D02*
X125026188Y-96244514D01*
X125026188Y-96244514D02*
X125026188Y-96015942D01*
X125026188Y-96015942D02*
X124988092Y-95939752D01*
X124988092Y-95939752D02*
X124949997Y-95901657D01*
X124949997Y-95901657D02*
X124873807Y-95863561D01*
X124873807Y-95863561D02*
X124721426Y-95863561D01*
X124721426Y-95863561D02*
X124645235Y-95901657D01*
X124492855Y-96473085D02*
X123883331Y-96473085D01*
X123273807Y-95634990D02*
X123349997Y-95596895D01*
X123349997Y-95596895D02*
X123464283Y-95596895D01*
X123464283Y-95596895D02*
X123578569Y-95634990D01*
X123578569Y-95634990D02*
X123654759Y-95711180D01*
X123654759Y-95711180D02*
X123692854Y-95787371D01*
X123692854Y-95787371D02*
X123730950Y-95939752D01*
X123730950Y-95939752D02*
X123730950Y-96054038D01*
X123730950Y-96054038D02*
X123692854Y-96206419D01*
X123692854Y-96206419D02*
X123654759Y-96282609D01*
X123654759Y-96282609D02*
X123578569Y-96358800D01*
X123578569Y-96358800D02*
X123464283Y-96396895D01*
X123464283Y-96396895D02*
X123388092Y-96396895D01*
X123388092Y-96396895D02*
X123273807Y-96358800D01*
X123273807Y-96358800D02*
X123235711Y-96320704D01*
X123235711Y-96320704D02*
X123235711Y-96054038D01*
X123235711Y-96054038D02*
X123388092Y-96054038D01*
X122588092Y-96358800D02*
X122664283Y-96396895D01*
X122664283Y-96396895D02*
X122816664Y-96396895D01*
X122816664Y-96396895D02*
X122892854Y-96358800D01*
X122892854Y-96358800D02*
X122930950Y-96282609D01*
X122930950Y-96282609D02*
X122930950Y-95977847D01*
X122930950Y-95977847D02*
X122892854Y-95901657D01*
X122892854Y-95901657D02*
X122816664Y-95863561D01*
X122816664Y-95863561D02*
X122664283Y-95863561D01*
X122664283Y-95863561D02*
X122588092Y-95901657D01*
X122588092Y-95901657D02*
X122549997Y-95977847D01*
X122549997Y-95977847D02*
X122549997Y-96054038D01*
X122549997Y-96054038D02*
X122930950Y-96130228D01*
X122207140Y-95863561D02*
X122207140Y-96396895D01*
X122207140Y-95939752D02*
X122169045Y-95901657D01*
X122169045Y-95901657D02*
X122092855Y-95863561D01*
X122092855Y-95863561D02*
X121978569Y-95863561D01*
X121978569Y-95863561D02*
X121902378Y-95901657D01*
X121902378Y-95901657D02*
X121864283Y-95977847D01*
X121864283Y-95977847D02*
X121864283Y-96396895D01*
X121026187Y-96320704D02*
X121064283Y-96358800D01*
X121064283Y-96358800D02*
X121178568Y-96396895D01*
X121178568Y-96396895D02*
X121254759Y-96396895D01*
X121254759Y-96396895D02*
X121369045Y-96358800D01*
X121369045Y-96358800D02*
X121445235Y-96282609D01*
X121445235Y-96282609D02*
X121483330Y-96206419D01*
X121483330Y-96206419D02*
X121521426Y-96054038D01*
X121521426Y-96054038D02*
X121521426Y-95939752D01*
X121521426Y-95939752D02*
X121483330Y-95787371D01*
X121483330Y-95787371D02*
X121445235Y-95711180D01*
X121445235Y-95711180D02*
X121369045Y-95634990D01*
X121369045Y-95634990D02*
X121254759Y-95596895D01*
X121254759Y-95596895D02*
X121178568Y-95596895D01*
X121178568Y-95596895D02*
X121064283Y-95634990D01*
X121064283Y-95634990D02*
X121026187Y-95673085D01*
X120569045Y-96396895D02*
X120645235Y-96358800D01*
X120645235Y-96358800D02*
X120683330Y-96320704D01*
X120683330Y-96320704D02*
X120721426Y-96244514D01*
X120721426Y-96244514D02*
X120721426Y-96015942D01*
X120721426Y-96015942D02*
X120683330Y-95939752D01*
X120683330Y-95939752D02*
X120645235Y-95901657D01*
X120645235Y-95901657D02*
X120569045Y-95863561D01*
X120569045Y-95863561D02*
X120454759Y-95863561D01*
X120454759Y-95863561D02*
X120378568Y-95901657D01*
X120378568Y-95901657D02*
X120340473Y-95939752D01*
X120340473Y-95939752D02*
X120302378Y-96015942D01*
X120302378Y-96015942D02*
X120302378Y-96244514D01*
X120302378Y-96244514D02*
X120340473Y-96320704D01*
X120340473Y-96320704D02*
X120378568Y-96358800D01*
X120378568Y-96358800D02*
X120454759Y-96396895D01*
X120454759Y-96396895D02*
X120569045Y-96396895D01*
X119959520Y-96396895D02*
X119959520Y-95863561D01*
X119959520Y-95596895D02*
X119997616Y-95634990D01*
X119997616Y-95634990D02*
X119959520Y-95673085D01*
X119959520Y-95673085D02*
X119921425Y-95634990D01*
X119921425Y-95634990D02*
X119959520Y-95596895D01*
X119959520Y-95596895D02*
X119959520Y-95673085D01*
X119578568Y-95863561D02*
X119578568Y-96396895D01*
X119578568Y-95939752D02*
X119540473Y-95901657D01*
X119540473Y-95901657D02*
X119464283Y-95863561D01*
X119464283Y-95863561D02*
X119349997Y-95863561D01*
X119349997Y-95863561D02*
X119273806Y-95901657D01*
X119273806Y-95901657D02*
X119235711Y-95977847D01*
X119235711Y-95977847D02*
X119235711Y-96396895D01*
X136407142Y-110396895D02*
X136673809Y-110015942D01*
X136864285Y-110396895D02*
X136864285Y-109596895D01*
X136864285Y-109596895D02*
X136559523Y-109596895D01*
X136559523Y-109596895D02*
X136483333Y-109634990D01*
X136483333Y-109634990D02*
X136445238Y-109673085D01*
X136445238Y-109673085D02*
X136407142Y-109749276D01*
X136407142Y-109749276D02*
X136407142Y-109863561D01*
X136407142Y-109863561D02*
X136445238Y-109939752D01*
X136445238Y-109939752D02*
X136483333Y-109977847D01*
X136483333Y-109977847D02*
X136559523Y-110015942D01*
X136559523Y-110015942D02*
X136864285Y-110015942D01*
X135759523Y-110358800D02*
X135835714Y-110396895D01*
X135835714Y-110396895D02*
X135988095Y-110396895D01*
X135988095Y-110396895D02*
X136064285Y-110358800D01*
X136064285Y-110358800D02*
X136102381Y-110282609D01*
X136102381Y-110282609D02*
X136102381Y-109977847D01*
X136102381Y-109977847D02*
X136064285Y-109901657D01*
X136064285Y-109901657D02*
X135988095Y-109863561D01*
X135988095Y-109863561D02*
X135835714Y-109863561D01*
X135835714Y-109863561D02*
X135759523Y-109901657D01*
X135759523Y-109901657D02*
X135721428Y-109977847D01*
X135721428Y-109977847D02*
X135721428Y-110054038D01*
X135721428Y-110054038D02*
X136102381Y-110130228D01*
X135454762Y-109863561D02*
X135264286Y-110396895D01*
X135264286Y-110396895D02*
X135073809Y-109863561D01*
X134007142Y-109596895D02*
X133930952Y-109596895D01*
X133930952Y-109596895D02*
X133854761Y-109634990D01*
X133854761Y-109634990D02*
X133816666Y-109673085D01*
X133816666Y-109673085D02*
X133778571Y-109749276D01*
X133778571Y-109749276D02*
X133740476Y-109901657D01*
X133740476Y-109901657D02*
X133740476Y-110092133D01*
X133740476Y-110092133D02*
X133778571Y-110244514D01*
X133778571Y-110244514D02*
X133816666Y-110320704D01*
X133816666Y-110320704D02*
X133854761Y-110358800D01*
X133854761Y-110358800D02*
X133930952Y-110396895D01*
X133930952Y-110396895D02*
X134007142Y-110396895D01*
X134007142Y-110396895D02*
X134083333Y-110358800D01*
X134083333Y-110358800D02*
X134121428Y-110320704D01*
X134121428Y-110320704D02*
X134159523Y-110244514D01*
X134159523Y-110244514D02*
X134197619Y-110092133D01*
X134197619Y-110092133D02*
X134197619Y-109901657D01*
X134197619Y-109901657D02*
X134159523Y-109749276D01*
X134159523Y-109749276D02*
X134121428Y-109673085D01*
X134121428Y-109673085D02*
X134083333Y-109634990D01*
X134083333Y-109634990D02*
X134007142Y-109596895D01*
X133397618Y-110320704D02*
X133359523Y-110358800D01*
X133359523Y-110358800D02*
X133397618Y-110396895D01*
X133397618Y-110396895D02*
X133435714Y-110358800D01*
X133435714Y-110358800D02*
X133397618Y-110320704D01*
X133397618Y-110320704D02*
X133397618Y-110396895D01*
X132597619Y-110396895D02*
X133054762Y-110396895D01*
X132826190Y-110396895D02*
X132826190Y-109596895D01*
X132826190Y-109596895D02*
X132902381Y-109711180D01*
X132902381Y-109711180D02*
X132978571Y-109787371D01*
X132978571Y-109787371D02*
X133054762Y-109825466D01*
X149380951Y-84714856D02*
X149238094Y-84762475D01*
X149238094Y-84762475D02*
X148999999Y-84762475D01*
X148999999Y-84762475D02*
X148904761Y-84714856D01*
X148904761Y-84714856D02*
X148857142Y-84667236D01*
X148857142Y-84667236D02*
X148809523Y-84571998D01*
X148809523Y-84571998D02*
X148809523Y-84476760D01*
X148809523Y-84476760D02*
X148857142Y-84381522D01*
X148857142Y-84381522D02*
X148904761Y-84333903D01*
X148904761Y-84333903D02*
X148999999Y-84286284D01*
X148999999Y-84286284D02*
X149190475Y-84238665D01*
X149190475Y-84238665D02*
X149285713Y-84191046D01*
X149285713Y-84191046D02*
X149333332Y-84143427D01*
X149333332Y-84143427D02*
X149380951Y-84048189D01*
X149380951Y-84048189D02*
X149380951Y-83952951D01*
X149380951Y-83952951D02*
X149333332Y-83857713D01*
X149333332Y-83857713D02*
X149285713Y-83810094D01*
X149285713Y-83810094D02*
X149190475Y-83762475D01*
X149190475Y-83762475D02*
X148952380Y-83762475D01*
X148952380Y-83762475D02*
X148809523Y-83810094D01*
X148380951Y-84381522D02*
X147619047Y-84381522D01*
X147999999Y-84762475D02*
X147999999Y-84000570D01*
X146619047Y-84762475D02*
X147190475Y-84762475D01*
X146904761Y-84762475D02*
X146904761Y-83762475D01*
X146904761Y-83762475D02*
X146999999Y-83905332D01*
X146999999Y-83905332D02*
X147095237Y-84000570D01*
X147095237Y-84000570D02*
X147190475Y-84048189D01*
X149333332Y-85372419D02*
X148999999Y-86372419D01*
X148999999Y-86372419D02*
X148666666Y-85372419D01*
X147761904Y-86277180D02*
X147809523Y-86324800D01*
X147809523Y-86324800D02*
X147952380Y-86372419D01*
X147952380Y-86372419D02*
X148047618Y-86372419D01*
X148047618Y-86372419D02*
X148190475Y-86324800D01*
X148190475Y-86324800D02*
X148285713Y-86229561D01*
X148285713Y-86229561D02*
X148333332Y-86134323D01*
X148333332Y-86134323D02*
X148380951Y-85943847D01*
X148380951Y-85943847D02*
X148380951Y-85800990D01*
X148380951Y-85800990D02*
X148333332Y-85610514D01*
X148333332Y-85610514D02*
X148285713Y-85515276D01*
X148285713Y-85515276D02*
X148190475Y-85420038D01*
X148190475Y-85420038D02*
X148047618Y-85372419D01*
X148047618Y-85372419D02*
X147952380Y-85372419D01*
X147952380Y-85372419D02*
X147809523Y-85420038D01*
X147809523Y-85420038D02*
X147761904Y-85467657D01*
X146761904Y-86277180D02*
X146809523Y-86324800D01*
X146809523Y-86324800D02*
X146952380Y-86372419D01*
X146952380Y-86372419D02*
X147047618Y-86372419D01*
X147047618Y-86372419D02*
X147190475Y-86324800D01*
X147190475Y-86324800D02*
X147285713Y-86229561D01*
X147285713Y-86229561D02*
X147333332Y-86134323D01*
X147333332Y-86134323D02*
X147380951Y-85943847D01*
X147380951Y-85943847D02*
X147380951Y-85800990D01*
X147380951Y-85800990D02*
X147333332Y-85610514D01*
X147333332Y-85610514D02*
X147285713Y-85515276D01*
X147285713Y-85515276D02*
X147190475Y-85420038D01*
X147190475Y-85420038D02*
X147047618Y-85372419D01*
X147047618Y-85372419D02*
X146952380Y-85372419D01*
X146952380Y-85372419D02*
X146809523Y-85420038D01*
X146809523Y-85420038D02*
X146761904Y-85467657D01*
X135511904Y-84170038D02*
X135607142Y-84122419D01*
X135607142Y-84122419D02*
X135749999Y-84122419D01*
X135749999Y-84122419D02*
X135892856Y-84170038D01*
X135892856Y-84170038D02*
X135988094Y-84265276D01*
X135988094Y-84265276D02*
X136035713Y-84360514D01*
X136035713Y-84360514D02*
X136083332Y-84550990D01*
X136083332Y-84550990D02*
X136083332Y-84693847D01*
X136083332Y-84693847D02*
X136035713Y-84884323D01*
X136035713Y-84884323D02*
X135988094Y-84979561D01*
X135988094Y-84979561D02*
X135892856Y-85074800D01*
X135892856Y-85074800D02*
X135749999Y-85122419D01*
X135749999Y-85122419D02*
X135654761Y-85122419D01*
X135654761Y-85122419D02*
X135511904Y-85074800D01*
X135511904Y-85074800D02*
X135464285Y-85027180D01*
X135464285Y-85027180D02*
X135464285Y-84693847D01*
X135464285Y-84693847D02*
X135654761Y-84693847D01*
X135035713Y-85122419D02*
X135035713Y-84122419D01*
X135035713Y-84122419D02*
X134464285Y-85122419D01*
X134464285Y-85122419D02*
X134464285Y-84122419D01*
X133988094Y-85122419D02*
X133988094Y-84122419D01*
X133988094Y-84122419D02*
X133749999Y-84122419D01*
X133749999Y-84122419D02*
X133607142Y-84170038D01*
X133607142Y-84170038D02*
X133511904Y-84265276D01*
X133511904Y-84265276D02*
X133464285Y-84360514D01*
X133464285Y-84360514D02*
X133416666Y-84550990D01*
X133416666Y-84550990D02*
X133416666Y-84693847D01*
X133416666Y-84693847D02*
X133464285Y-84884323D01*
X133464285Y-84884323D02*
X133511904Y-84979561D01*
X133511904Y-84979561D02*
X133607142Y-85074800D01*
X133607142Y-85074800D02*
X133749999Y-85122419D01*
X133749999Y-85122419D02*
X133988094Y-85122419D01*
D12*
X139619048Y-70775880D02*
X139666667Y-70823500D01*
X139666667Y-70823500D02*
X139809524Y-70871119D01*
X139809524Y-70871119D02*
X139904762Y-70871119D01*
X139904762Y-70871119D02*
X140047619Y-70823500D01*
X140047619Y-70823500D02*
X140142857Y-70728261D01*
X140142857Y-70728261D02*
X140190476Y-70633023D01*
X140190476Y-70633023D02*
X140238095Y-70442547D01*
X140238095Y-70442547D02*
X140238095Y-70299690D01*
X140238095Y-70299690D02*
X140190476Y-70109214D01*
X140190476Y-70109214D02*
X140142857Y-70013976D01*
X140142857Y-70013976D02*
X140047619Y-69918738D01*
X140047619Y-69918738D02*
X139904762Y-69871119D01*
X139904762Y-69871119D02*
X139809524Y-69871119D01*
X139809524Y-69871119D02*
X139666667Y-69918738D01*
X139666667Y-69918738D02*
X139619048Y-69966357D01*
X138619048Y-70871119D02*
X138952381Y-70394928D01*
X139190476Y-70871119D02*
X139190476Y-69871119D01*
X139190476Y-69871119D02*
X138809524Y-69871119D01*
X138809524Y-69871119D02*
X138714286Y-69918738D01*
X138714286Y-69918738D02*
X138666667Y-69966357D01*
X138666667Y-69966357D02*
X138619048Y-70061595D01*
X138619048Y-70061595D02*
X138619048Y-70204452D01*
X138619048Y-70204452D02*
X138666667Y-70299690D01*
X138666667Y-70299690D02*
X138714286Y-70347309D01*
X138714286Y-70347309D02*
X138809524Y-70394928D01*
X138809524Y-70394928D02*
X139190476Y-70394928D01*
X138238095Y-69966357D02*
X138190476Y-69918738D01*
X138190476Y-69918738D02*
X138095238Y-69871119D01*
X138095238Y-69871119D02*
X137857143Y-69871119D01*
X137857143Y-69871119D02*
X137761905Y-69918738D01*
X137761905Y-69918738D02*
X137714286Y-69966357D01*
X137714286Y-69966357D02*
X137666667Y-70061595D01*
X137666667Y-70061595D02*
X137666667Y-70156833D01*
X137666667Y-70156833D02*
X137714286Y-70299690D01*
X137714286Y-70299690D02*
X138285714Y-70871119D01*
X138285714Y-70871119D02*
X137666667Y-70871119D01*
X137047619Y-69871119D02*
X136952381Y-69871119D01*
X136952381Y-69871119D02*
X136857143Y-69918738D01*
X136857143Y-69918738D02*
X136809524Y-69966357D01*
X136809524Y-69966357D02*
X136761905Y-70061595D01*
X136761905Y-70061595D02*
X136714286Y-70252071D01*
X136714286Y-70252071D02*
X136714286Y-70490166D01*
X136714286Y-70490166D02*
X136761905Y-70680642D01*
X136761905Y-70680642D02*
X136809524Y-70775880D01*
X136809524Y-70775880D02*
X136857143Y-70823500D01*
X136857143Y-70823500D02*
X136952381Y-70871119D01*
X136952381Y-70871119D02*
X137047619Y-70871119D01*
X137047619Y-70871119D02*
X137142857Y-70823500D01*
X137142857Y-70823500D02*
X137190476Y-70775880D01*
X137190476Y-70775880D02*
X137238095Y-70680642D01*
X137238095Y-70680642D02*
X137285714Y-70490166D01*
X137285714Y-70490166D02*
X137285714Y-70252071D01*
X137285714Y-70252071D02*
X137238095Y-70061595D01*
X137238095Y-70061595D02*
X137190476Y-69966357D01*
X137190476Y-69966357D02*
X137142857Y-69918738D01*
X137142857Y-69918738D02*
X137047619Y-69871119D01*
X135761905Y-70871119D02*
X136333333Y-70871119D01*
X136047619Y-70871119D02*
X136047619Y-69871119D01*
X136047619Y-69871119D02*
X136142857Y-70013976D01*
X136142857Y-70013976D02*
X136238095Y-70109214D01*
X136238095Y-70109214D02*
X136333333Y-70156833D01*
X134904762Y-69871119D02*
X135095238Y-69871119D01*
X135095238Y-69871119D02*
X135190476Y-69918738D01*
X135190476Y-69918738D02*
X135238095Y-69966357D01*
X135238095Y-69966357D02*
X135333333Y-70109214D01*
X135333333Y-70109214D02*
X135380952Y-70299690D01*
X135380952Y-70299690D02*
X135380952Y-70680642D01*
X135380952Y-70680642D02*
X135333333Y-70775880D01*
X135333333Y-70775880D02*
X135285714Y-70823500D01*
X135285714Y-70823500D02*
X135190476Y-70871119D01*
X135190476Y-70871119D02*
X135000000Y-70871119D01*
X135000000Y-70871119D02*
X134904762Y-70823500D01*
X134904762Y-70823500D02*
X134857143Y-70775880D01*
X134857143Y-70775880D02*
X134809524Y-70680642D01*
X134809524Y-70680642D02*
X134809524Y-70442547D01*
X134809524Y-70442547D02*
X134857143Y-70347309D01*
X134857143Y-70347309D02*
X134904762Y-70299690D01*
X134904762Y-70299690D02*
X135000000Y-70252071D01*
X135000000Y-70252071D02*
X135190476Y-70252071D01*
X135190476Y-70252071D02*
X135285714Y-70299690D01*
X135285714Y-70299690D02*
X135333333Y-70347309D01*
X135333333Y-70347309D02*
X135380952Y-70442547D01*
X133285714Y-70347309D02*
X133142857Y-70394928D01*
X133142857Y-70394928D02*
X133095238Y-70442547D01*
X133095238Y-70442547D02*
X133047619Y-70537785D01*
X133047619Y-70537785D02*
X133047619Y-70680642D01*
X133047619Y-70680642D02*
X133095238Y-70775880D01*
X133095238Y-70775880D02*
X133142857Y-70823500D01*
X133142857Y-70823500D02*
X133238095Y-70871119D01*
X133238095Y-70871119D02*
X133619047Y-70871119D01*
X133619047Y-70871119D02*
X133619047Y-69871119D01*
X133619047Y-69871119D02*
X133285714Y-69871119D01*
X133285714Y-69871119D02*
X133190476Y-69918738D01*
X133190476Y-69918738D02*
X133142857Y-69966357D01*
X133142857Y-69966357D02*
X133095238Y-70061595D01*
X133095238Y-70061595D02*
X133095238Y-70156833D01*
X133095238Y-70156833D02*
X133142857Y-70252071D01*
X133142857Y-70252071D02*
X133190476Y-70299690D01*
X133190476Y-70299690D02*
X133285714Y-70347309D01*
X133285714Y-70347309D02*
X133619047Y-70347309D01*
X132190476Y-70871119D02*
X132190476Y-70347309D01*
X132190476Y-70347309D02*
X132238095Y-70252071D01*
X132238095Y-70252071D02*
X132333333Y-70204452D01*
X132333333Y-70204452D02*
X132523809Y-70204452D01*
X132523809Y-70204452D02*
X132619047Y-70252071D01*
X132190476Y-70823500D02*
X132285714Y-70871119D01*
X132285714Y-70871119D02*
X132523809Y-70871119D01*
X132523809Y-70871119D02*
X132619047Y-70823500D01*
X132619047Y-70823500D02*
X132666666Y-70728261D01*
X132666666Y-70728261D02*
X132666666Y-70633023D01*
X132666666Y-70633023D02*
X132619047Y-70537785D01*
X132619047Y-70537785D02*
X132523809Y-70490166D01*
X132523809Y-70490166D02*
X132285714Y-70490166D01*
X132285714Y-70490166D02*
X132190476Y-70442547D01*
X131857142Y-70204452D02*
X131476190Y-70204452D01*
X131714285Y-69871119D02*
X131714285Y-70728261D01*
X131714285Y-70728261D02*
X131666666Y-70823500D01*
X131666666Y-70823500D02*
X131571428Y-70871119D01*
X131571428Y-70871119D02*
X131476190Y-70871119D01*
X131285713Y-70204452D02*
X130904761Y-70204452D01*
X131142856Y-69871119D02*
X131142856Y-70728261D01*
X131142856Y-70728261D02*
X131095237Y-70823500D01*
X131095237Y-70823500D02*
X130999999Y-70871119D01*
X130999999Y-70871119D02*
X130904761Y-70871119D01*
X130190475Y-70823500D02*
X130285713Y-70871119D01*
X130285713Y-70871119D02*
X130476189Y-70871119D01*
X130476189Y-70871119D02*
X130571427Y-70823500D01*
X130571427Y-70823500D02*
X130619046Y-70728261D01*
X130619046Y-70728261D02*
X130619046Y-70347309D01*
X130619046Y-70347309D02*
X130571427Y-70252071D01*
X130571427Y-70252071D02*
X130476189Y-70204452D01*
X130476189Y-70204452D02*
X130285713Y-70204452D01*
X130285713Y-70204452D02*
X130190475Y-70252071D01*
X130190475Y-70252071D02*
X130142856Y-70347309D01*
X130142856Y-70347309D02*
X130142856Y-70442547D01*
X130142856Y-70442547D02*
X130619046Y-70537785D01*
X129714284Y-70871119D02*
X129714284Y-70204452D01*
X129714284Y-70394928D02*
X129666665Y-70299690D01*
X129666665Y-70299690D02*
X129619046Y-70252071D01*
X129619046Y-70252071D02*
X129523808Y-70204452D01*
X129523808Y-70204452D02*
X129428570Y-70204452D01*
X129190474Y-70204452D02*
X128952379Y-70871119D01*
X128714284Y-70204452D02*
X128952379Y-70871119D01*
X128952379Y-70871119D02*
X129047617Y-71109214D01*
X129047617Y-71109214D02*
X129095236Y-71156833D01*
X129095236Y-71156833D02*
X129190474Y-71204452D01*
D13*
X135287112Y-72430900D02*
X135144000Y-72478604D01*
X135144000Y-72478604D02*
X135096297Y-72526308D01*
X135096297Y-72526308D02*
X135048593Y-72621716D01*
X135048593Y-72621716D02*
X135048593Y-72764827D01*
X135048593Y-72764827D02*
X135096297Y-72860235D01*
X135096297Y-72860235D02*
X135144000Y-72907939D01*
X135144000Y-72907939D02*
X135239408Y-72955642D01*
X135239408Y-72955642D02*
X135621038Y-72955642D01*
X135621038Y-72955642D02*
X135621038Y-71953862D01*
X135621038Y-71953862D02*
X135287112Y-71953862D01*
X135287112Y-71953862D02*
X135191704Y-72001566D01*
X135191704Y-72001566D02*
X135144000Y-72049270D01*
X135144000Y-72049270D02*
X135096297Y-72144678D01*
X135096297Y-72144678D02*
X135096297Y-72240085D01*
X135096297Y-72240085D02*
X135144000Y-72335493D01*
X135144000Y-72335493D02*
X135191704Y-72383197D01*
X135191704Y-72383197D02*
X135287112Y-72430900D01*
X135287112Y-72430900D02*
X135621038Y-72430900D01*
X134762370Y-71953862D02*
X134189924Y-71953862D01*
X134476147Y-72955642D02*
X134476147Y-71953862D01*
X133331256Y-72955642D02*
X133903701Y-72955642D01*
X133617478Y-72955642D02*
X133617478Y-71953862D01*
X133617478Y-71953862D02*
X133712886Y-72096974D01*
X133712886Y-72096974D02*
X133808294Y-72192381D01*
X133808294Y-72192381D02*
X133903701Y-72240085D01*
D14*
X141320000Y-72845000D02*
G75*
G02*
X145225001Y-74540000I1599373J-1661047D01*
G01*
X141320000Y-72845000D02*
G75*
G02*
X128020000Y-72845000I-6650000J6705887D01*
G01*
X124115000Y-74540000D02*
G75*
G02*
X128019999Y-72845003I2342010J-49870D01*
G01*
X145225000Y-84750000D02*
X138420000Y-92050000D01*
X145225000Y-83355000D02*
X145225000Y-84750000D01*
X145225000Y-74540000D02*
X145225000Y-76645000D01*
X138420000Y-92050000D02*
X130920000Y-92050000D01*
X130920000Y-92050000D02*
X124115000Y-84750000D01*
X124115000Y-83355000D02*
X124115000Y-84750000D01*
X124115000Y-74540000D02*
X124115000Y-76645000D01*
%LPC*%
D15*
X122340000Y-80000000D03*
X147000000Y-80000000D03*
X134670000Y-80000000D03*
D16*
X130040000Y-89540000D03*
X130400000Y-92000000D03*
X125000000Y-89500000D03*
X134000000Y-89000000D03*
X134000000Y-86000000D03*
X142500000Y-81000000D03*
X139500000Y-89540000D03*
X135000000Y-83730000D03*
X130500000Y-81000000D03*
X135500000Y-86500000D03*
X132940000Y-92060000D03*
X112925000Y-96500000D03*
X134000000Y-69000000D03*
X149000000Y-74000000D03*
X124770000Y-83730000D03*
X121425000Y-73425000D03*
X133787500Y-111500000D03*
X147500000Y-106750000D03*
X156000000Y-83500000D03*
X120425000Y-106000000D03*
X112925000Y-83925000D03*
X156000000Y-96500000D03*
X136750000Y-92000000D03*
X135575000Y-69100000D03*
X139290000Y-92000000D03*
X147425000Y-73925000D03*
X136750000Y-98000000D03*
X154425000Y-83425000D03*
X154425000Y-96575000D03*
X135480000Y-101480000D03*
X145925000Y-106575000D03*
X130400000Y-101500000D03*
X142000000Y-103000000D03*
X135362500Y-111500000D03*
X129000000Y-101500000D03*
X122000000Y-106000000D03*
X128600000Y-97400000D03*
X114500000Y-96500000D03*
X114500000Y-84000000D03*
X131670000Y-98000000D03*
X132940000Y-98000000D03*
X123000000Y-73500000D03*
%LPD*%
M02*
