G04 #@! TF.GenerationSoftware,KiCad,Pcbnew,8.0.6*
G04 #@! TF.CreationDate,2025-01-06T10:49:23-06:00*
G04 #@! TF.ProjectId,BurbSec_GenCoin,42757262-5365-4635-9f47-656e436f696e,0.1*
G04 #@! TF.SameCoordinates,Original*
G04 #@! TF.FileFunction,Copper,L2,Bot*
G04 #@! TF.FilePolarity,Positive*
%FSLAX46Y46*%
G04 Gerber Fmt 4.6, Leading zero omitted, Abs format (unit mm)*
G04 Created by KiCad (PCBNEW 8.0.6) date 2025-01-06 10:49:23*
%MOMM*%
%LPD*%
G01*
G04 APERTURE LIST*
G04 #@! TA.AperFunction,SMDPad,CuDef*
%ADD10R,6.070000X6.070000*%
G04 #@! TD*
G04 #@! TA.AperFunction,ViaPad*
%ADD11C,0.600000*%
G04 #@! TD*
G04 #@! TA.AperFunction,Conductor*
%ADD12C,0.200000*%
G04 #@! TD*
G04 APERTURE END LIST*
D10*
X122340000Y-80000000D03*
X147000000Y-80000000D03*
X134670000Y-80000000D03*
D11*
X130040000Y-89540000D03*
X130400000Y-92000000D03*
X125000000Y-89500000D03*
X134000000Y-89000000D03*
X134000000Y-86000000D03*
X142500000Y-81000000D03*
X139500000Y-89540000D03*
X135000000Y-83730000D03*
X130500000Y-81000000D03*
X135500000Y-86500000D03*
X132940000Y-92060000D03*
X112925000Y-96500000D03*
X134000000Y-69000000D03*
X149000000Y-74000000D03*
X124770000Y-83730000D03*
X121425000Y-73425000D03*
X133787500Y-111500000D03*
X147500000Y-106750000D03*
X156000000Y-83500000D03*
X120425000Y-106000000D03*
X112925000Y-83925000D03*
X156000000Y-96500000D03*
X136750000Y-92000000D03*
X135575000Y-69100000D03*
X139290000Y-92000000D03*
X147425000Y-73925000D03*
X136750000Y-98000000D03*
X154425000Y-83425000D03*
X154425000Y-96575000D03*
X135480000Y-101480000D03*
X145925000Y-106575000D03*
X130400000Y-101500000D03*
X142000000Y-103000000D03*
X135362500Y-111500000D03*
X129000000Y-101500000D03*
X122000000Y-106000000D03*
X128600000Y-97400000D03*
X114500000Y-96500000D03*
X114500000Y-84000000D03*
X131670000Y-98000000D03*
X132940000Y-98000000D03*
X123000000Y-73500000D03*
D12*
X125500000Y-90500000D02*
X125000000Y-90000000D01*
X130400000Y-92000000D02*
X130400000Y-89900000D01*
X130400000Y-89900000D02*
X130040000Y-89540000D01*
X125000000Y-90000000D02*
X125000000Y-89500000D01*
X129080000Y-90500000D02*
X125500000Y-90500000D01*
X130040000Y-89540000D02*
X129080000Y-90500000D01*
X134000000Y-89000000D02*
X134000000Y-86000000D01*
X147000000Y-81000000D02*
X142500000Y-81000000D01*
X135000000Y-83730000D02*
X135000000Y-85040000D01*
X135000000Y-83730000D02*
X135000000Y-80330000D01*
X135000000Y-85040000D02*
X139500000Y-89540000D01*
X135000000Y-80330000D02*
X134670000Y-80000000D01*
X134670000Y-81000000D02*
X130500000Y-81000000D01*
X135500000Y-86500000D02*
X135500000Y-89500000D01*
X135500000Y-89500000D02*
X132940000Y-92060000D01*
X142000000Y-68500000D02*
X145500000Y-72000000D01*
X147000000Y-72000000D02*
X149000000Y-74000000D01*
X145500000Y-72000000D02*
X147000000Y-72000000D01*
X134000000Y-69000000D02*
X133500000Y-69500000D01*
X156000000Y-98250000D02*
X156000000Y-96500000D01*
X156000000Y-83500000D02*
X156000000Y-96500000D01*
X119425000Y-75425000D02*
X121425000Y-73425000D01*
X124770000Y-83730000D02*
X119400000Y-83730000D01*
X147500000Y-106750000D02*
X141250000Y-113000000D01*
X134000000Y-69000000D02*
X134500000Y-68500000D01*
X134500000Y-68500000D02*
X142000000Y-68500000D01*
X125925000Y-111500000D02*
X120425000Y-106000000D01*
X120425000Y-106000000D02*
X120425000Y-104000000D01*
X119400000Y-83730000D02*
X118925000Y-83255000D01*
X135287500Y-113000000D02*
X133787500Y-111500000D01*
X112925000Y-96500000D02*
X112925000Y-83925000D01*
X133787500Y-111500000D02*
X125925000Y-111500000D01*
X149000000Y-74000000D02*
X156000000Y-81000000D01*
X125350000Y-69500000D02*
X121425000Y-73425000D01*
X147500000Y-106750000D02*
X156000000Y-98250000D01*
X118925000Y-83255000D02*
X118925000Y-75925000D01*
X112925000Y-81925000D02*
X119425000Y-75425000D01*
X156000000Y-81000000D02*
X156000000Y-83500000D01*
X141250000Y-113000000D02*
X135287500Y-113000000D01*
X120425000Y-104000000D02*
X112925000Y-96500000D01*
X112925000Y-83925000D02*
X112925000Y-81925000D01*
X133500000Y-69500000D02*
X125350000Y-69500000D01*
X118925000Y-75925000D02*
X119425000Y-75425000D01*
X135575000Y-69100000D02*
X135600000Y-69100000D01*
X135600000Y-69100000D02*
X140100000Y-73600000D01*
X140100000Y-73600000D02*
X140100000Y-89788529D01*
X137888529Y-92000000D02*
X136750000Y-92000000D01*
X140100000Y-89788529D02*
X137888529Y-92000000D01*
X140500000Y-79830000D02*
X140500000Y-90790000D01*
X140500000Y-90790000D02*
X139290000Y-92000000D01*
X146405000Y-73925000D02*
X140500000Y-79830000D01*
X147425000Y-73925000D02*
X146405000Y-73925000D01*
X154425000Y-83425000D02*
X154425000Y-94075000D01*
X154425000Y-94075000D02*
X150500000Y-98000000D01*
X150500000Y-98000000D02*
X136750000Y-98000000D01*
X154425000Y-96575000D02*
X148900000Y-102100000D01*
X136100000Y-102100000D02*
X135480000Y-101480000D01*
X148900000Y-102100000D02*
X136100000Y-102100000D01*
X135475000Y-106575000D02*
X130400000Y-101500000D01*
X145925000Y-106575000D02*
X135475000Y-106575000D01*
X143198529Y-103000000D02*
X146525000Y-106326471D01*
X146525000Y-106326471D02*
X146525000Y-106823529D01*
X142000000Y-103000000D02*
X143198529Y-103000000D01*
X146525000Y-106823529D02*
X146173529Y-107175000D01*
X146173529Y-107175000D02*
X139687500Y-107175000D01*
X139687500Y-107175000D02*
X135362500Y-111500000D01*
X127500000Y-106000000D02*
X122000000Y-106000000D01*
X129000000Y-101500000D02*
X129000000Y-104500000D01*
X129000000Y-104500000D02*
X127500000Y-106000000D01*
X128600000Y-97400000D02*
X127500000Y-98500000D01*
X116500000Y-98500000D02*
X114500000Y-96500000D01*
X127500000Y-98500000D02*
X116500000Y-98500000D01*
X130470000Y-96800000D02*
X131670000Y-98000000D01*
X117300000Y-96800000D02*
X130470000Y-96800000D01*
X114500000Y-94000000D02*
X117300000Y-96800000D01*
X114500000Y-84000000D02*
X114500000Y-94000000D01*
X122282843Y-87065686D02*
X125675000Y-83673529D01*
X132940000Y-98000000D02*
X125840000Y-90900000D01*
X125675000Y-76175000D02*
X123000000Y-73500000D01*
X125840000Y-90900000D02*
X125334314Y-90900000D01*
X125334314Y-90900000D02*
X122282843Y-87848529D01*
X125675000Y-83673529D02*
X125675000Y-76175000D01*
X122282843Y-87848529D02*
X122282843Y-87065686D01*
M02*
